<?xml version="1.0" encoding="UTF-8" standalone="no"?>
<!DOCTYPE svg PUBLIC "-//W3C//DTD SVG 1.1//EN"
 "http://www.w3.org/Graphics/SVG/1.1/DTD/svg11.dtd">
<!-- Generated by graphviz version 14.1.3 (20260303.0454)
 -->
<!-- Title: ScenarioOutline Pages: 1 -->
<svg width="1129pt" height="493pt"
 viewBox="0.00 0.00 1129.00 493.00" xmlns="http://www.w3.org/2000/svg" xmlns:xlink="http://www.w3.org/1999/xlink">
<g id="graph0" class="graph" transform="scale(1 1) rotate(0) translate(28.8 464.2)">
<title>ScenarioOutline</title>
<polygon fill="#0a0d10" stroke="none" points="-28.8,28.8 -28.8,-464.2 1099.81,-464.2 1099.81,28.8 -28.8,28.8"/>
<!-- role_instruction -->
<g id="node1" class="node">
<title>role_instruction</title>
<path fill="#3a2a14" stroke="#b45309" stroke-width="1.6" stroke-dasharray="5,2" d="M311.97,-406.2C311.97,-406.2 12,-406.2 12,-406.2 6,-406.2 0,-400.2 0,-394.2 0,-394.2 0,-343.4 0,-343.4 0,-337.4 6,-331.4 12,-331.4 12,-331.4 311.97,-331.4 311.97,-331.4 317.97,-331.4 323.97,-337.4 323.97,-343.4 323.97,-343.4 323.97,-394.2 323.97,-394.2 323.97,-400.2 317.97,-406.2 311.97,-406.2"/>
<text xml:space="preserve" text-anchor="start" x="16" y="-380.8" font-family="Helvetica,sans-Serif" font-weight="bold" font-size="16.00" fill="#fde68a">Role instruction</text>
<text xml:space="preserve" text-anchor="start" x="16" y="-346" font-family="Helvetica,sans-Serif" font-size="13.00" fill="#fde68a">You are an onboarding assistant for Akapulu Labs.</text>
</g>
<!-- greeting -->
<g id="node2" class="node">
<title>greeting</title>
<path fill="#10261a" stroke="#15803d" stroke-width="1.5" d="M643.74,-435.4C643.74,-435.4 376.24,-435.4 376.24,-435.4 370.24,-435.4 364.24,-429.4 364.24,-423.4 364.24,-423.4 364.24,-314.2 364.24,-314.2 364.24,-308.2 370.24,-302.2 376.24,-302.2 376.24,-302.2 643.74,-302.2 643.74,-302.2 649.74,-302.2 655.74,-308.2 655.74,-314.2 655.74,-314.2 655.74,-423.4 655.74,-423.4 655.74,-429.4 649.74,-435.4 643.74,-435.4"/>
<text xml:space="preserve" text-anchor="start" x="380.24" y="-410" font-family="Helvetica,sans-Serif" font-weight="bold" font-size="16.00" fill="#86efac">Greeting</text>
<text xml:space="preserve" text-anchor="start" x="380.24" y="-379.3" font-family="Helvetica,sans-Serif" font-weight="bold" font-size="11.00" fill="#6ee7b7">Task instruction</text>
<text xml:space="preserve" text-anchor="start" x="380.24" y="-347" font-family="Helvetica,sans-Serif" font-size="12.00" fill="#dcfce7">Greet the user and ask open&#45;ended questions</text>
<text xml:space="preserve" text-anchor="start" x="380.24" y="-316.6" font-family="Helvetica,sans-Serif" font-size="12.00" fill="#dcfce7">about what they want to build with Akapulu Labs.</text>
</g>
<!-- transition_to_planning_phase -->
<g id="node4" class="node">
<title>transition_to_planning_phase</title>
<path fill="#3f2a1d" stroke="#c2410c" stroke-width="1.2" stroke-dasharray="5,2" d="M584.38,-224.2C584.38,-224.2 435.59,-224.2 435.59,-224.2 429.59,-224.2 423.59,-218.2 423.59,-212.2 423.59,-212.2 423.59,-200.2 423.59,-200.2 423.59,-194.2 429.59,-188.2 435.59,-188.2 435.59,-188.2 584.38,-188.2 584.38,-188.2 590.38,-188.2 596.38,-194.2 596.38,-200.2 596.38,-200.2 596.38,-212.2 596.38,-212.2 596.38,-218.2 590.38,-224.2 584.38,-224.2"/>
<text xml:space="preserve" text-anchor="middle" x="509.99" y="-202.6" font-family="Helvetica,sans-Serif" font-size="12.00" fill="#fed7aa">transition_to_planning_phase</text>
</g>
<!-- greeting&#45;&gt;transition_to_planning_phase -->
<g id="edge1" class="edge">
<title>greeting&#45;&gt;transition_to_planning_phase</title>
<path fill="none" stroke="#6b7280" d="M509.99,-301.55C509.99,-277.93 509.99,-252.63 509.99,-234.19"/>
<polygon fill="#6b7280" stroke="#6b7280" points="512.79,-234.21 509.99,-226.21 507.19,-234.21 512.79,-234.21"/>
<text xml:space="preserve" text-anchor="middle" x="586.96" y="-266.2" font-family="Helvetica,sans-Serif" font-size="10.00" fill="#9ca3af"> &#160;&#160;Once their project scope is clear,</text>
<text xml:space="preserve" text-anchor="middle" x="586.96" y="-254.2" font-family="Helvetica,sans-Serif" font-size="10.00" fill="#9ca3af">move onto the planning phase</text>
</g>
<!-- planning_phase -->
<g id="node3" class="node">
<title>planning_phase</title>
<path fill="#172554" stroke="#1d4ed8" stroke-width="1.5" d="M677.08,-133.2C677.08,-133.2 342.89,-133.2 342.89,-133.2 336.89,-133.2 330.89,-127.2 330.89,-121.2 330.89,-121.2 330.89,-12 330.89,-12 330.89,-6 336.89,0 342.89,0 342.89,0 677.08,0 677.08,0 683.08,0 689.08,-6 689.08,-12 689.08,-12 689.08,-121.2 689.08,-121.2 689.08,-127.2 683.08,-133.2 677.08,-133.2"/>
<text xml:space="preserve" text-anchor="start" x="346.89" y="-107.8" font-family="Helvetica,sans-Serif" font-weight="bold" font-size="16.00" fill="#93c5fd">Planning Phase</text>
<text xml:space="preserve" text-anchor="start" x="346.89" y="-77.1" font-family="Helvetica,sans-Serif" font-weight="bold" font-size="11.00" fill="#60a5fa">Task instruction</text>
<text xml:space="preserve" text-anchor="start" x="346.89" y="-44.8" font-family="Helvetica,sans-Serif" font-size="12.00" fill="#dbeafe">Help the user plan their project on the Akapulu Labs platform.</text>
<text xml:space="preserve" text-anchor="start" x="346.89" y="-14.4" font-family="Helvetica,sans-Serif" font-size="12.00" fill="#dbeafe">Use Akapulu_RAG to gather platform context.</text>
</g>
<!-- transition_to_planning_phase&#45;&gt;planning_phase -->
<g id="edge3" class="edge">
<title>transition_to_planning_phase&#45;&gt;planning_phase</title>
<path fill="none" stroke="#9ca3af" d="M509.99,-187.77C509.99,-176.12 509.99,-159.89 509.99,-143.13"/>
<polygon fill="#9ca3af" stroke="#9ca3af" points="512.79,-143.3 509.99,-135.3 507.19,-143.3 512.79,-143.3"/>
</g>
<!-- akapulu_rag -->
<g id="node5" class="node">
<title>akapulu_rag</title>
<path fill="#221638" stroke="#7c3aed" stroke-width="1.2" stroke-dasharray="5,2" d="M1059.01,-92.4C1059.01,-92.4 982.97,-92.4 982.97,-92.4 976.97,-92.4 970.97,-86.4 970.97,-80.4 970.97,-80.4 970.97,-52.8 970.97,-52.8 970.97,-46.8 976.97,-40.8 982.97,-40.8 982.97,-40.8 1059.01,-40.8 1059.01,-40.8 1065.01,-40.8 1071.01,-46.8 1071.01,-52.8 1071.01,-52.8 1071.01,-80.4 1071.01,-80.4 1071.01,-86.4 1065.01,-92.4 1059.01,-92.4"/>
<text xml:space="preserve" text-anchor="start" x="982.97" y="-72.4" font-family="Helvetica,sans-Serif" font-size="12.00" fill="#c4b5fd">Akapulu_RAG</text>
<text xml:space="preserve" text-anchor="start" x="995.01" y="-51" font-family="Helvetica,sans-Serif" font-size="11.00" fill="#c4b5fd">(RAG tool)</text>
</g>
<!-- akapulu_rag&#45;&gt;planning_phase -->
<g id="edge2" class="edge">
<title>akapulu_rag&#45;&gt;planning_phase</title>
<path fill="none" stroke="#9ca3af" stroke-dasharray="5,2" d="M961.32,-66.6C897.18,-66.6 791.9,-66.6 699.16,-66.6"/>
<polygon fill="#9ca3af" stroke="#9ca3af" points="960.97,-69.4 968.97,-66.6 960.97,-63.8 960.97,-69.4"/>
<polygon fill="#9ca3af" stroke="#9ca3af" points="699.3,-63.8 691.3,-66.6 699.3,-69.4 699.3,-63.8"/>
<text xml:space="preserve" text-anchor="middle" x="830.02" y="-72.9" font-family="Helvetica,sans-Serif" font-size="11.00">Access information on the Akapulu Labs platform.</text>
</g>
</g>
</svg>
