<?xml version="1.0" encoding="UTF-8" standalone="no"?>
<!DOCTYPE svg PUBLIC "-//W3C//DTD SVG 1.1//EN"
 "http://www.w3.org/Graphics/SVG/1.1/DTD/svg11.dtd">
<!-- Generated by graphviz version 14.1.3 (20260303.0454)
 -->
<!-- Title: ScenarioOutline Pages: 1 -->
<svg width="1047pt" height="493pt"
 viewBox="0.00 0.00 1047.00 493.00" xmlns="http://www.w3.org/2000/svg" xmlns:xlink="http://www.w3.org/1999/xlink">
<g id="graph0" class="graph" transform="scale(1 1) rotate(0) translate(28.8 464.2)">
<title>ScenarioOutline</title>
<polygon fill="#0a0d10" stroke="none" points="-28.8,28.8 -28.8,-464.2 1017.91,-464.2 1017.91,28.8 -28.8,28.8"/>
<!-- role_instruction -->
<g id="node1" class="node">
<title>role_instruction</title>
<path fill="#3a2a14" stroke="#b45309" stroke-width="1.6" stroke-dasharray="5,2" d="M280.17,-406.2C280.17,-406.2 12,-406.2 12,-406.2 6,-406.2 0,-400.2 0,-394.2 0,-394.2 0,-343.4 0,-343.4 0,-337.4 6,-331.4 12,-331.4 12,-331.4 280.17,-331.4 280.17,-331.4 286.17,-331.4 292.17,-337.4 292.17,-343.4 292.17,-343.4 292.17,-394.2 292.17,-394.2 292.17,-400.2 286.17,-406.2 280.17,-406.2"/>
<text xml:space="preserve" text-anchor="start" x="16" y="-380.8" font-family="Helvetica,sans-Serif" font-weight="bold" font-size="16.00" fill="#fde68a">Role instruction</text>
<text xml:space="preserve" text-anchor="start" x="16" y="-346" font-family="Helvetica,sans-Serif" font-size="13.00" fill="#fde68a">You are an onboarding assistant for Akapulu.</text>
</g>
<!-- greeting -->
<g id="node2" class="node">
<title>greeting</title>
<path fill="#10261a" stroke="#15803d" stroke-width="1.5" d="M596.17,-435.4C596.17,-435.4 344,-435.4 344,-435.4 338,-435.4 332,-429.4 332,-423.4 332,-423.4 332,-314.2 332,-314.2 332,-308.2 338,-302.2 344,-302.2 344,-302.2 596.17,-302.2 596.17,-302.2 602.17,-302.2 608.17,-308.2 608.17,-314.2 608.17,-314.2 608.17,-423.4 608.17,-423.4 608.17,-429.4 602.17,-435.4 596.17,-435.4"/>
<text xml:space="preserve" text-anchor="start" x="348" y="-410" font-family="Helvetica,sans-Serif" font-weight="bold" font-size="16.00" fill="#86efac">Greeting</text>
<text xml:space="preserve" text-anchor="start" x="348" y="-379.3" font-family="Helvetica,sans-Serif" font-weight="bold" font-size="11.00" fill="#6ee7b7">Task instruction</text>
<text xml:space="preserve" text-anchor="start" x="348" y="-347" font-family="Helvetica,sans-Serif" font-size="12.00" fill="#dcfce7">Greet the user and ask open&#45;ended questions</text>
<text xml:space="preserve" text-anchor="start" x="348" y="-316.6" font-family="Helvetica,sans-Serif" font-size="12.00" fill="#dcfce7">about what they want to build with Akapulu.</text>
</g>
<!-- transition_to_planning_phase -->
<g id="node4" class="node">
<title>transition_to_planning_phase</title>
<path fill="#3f2a1d" stroke="#c2410c" stroke-width="1.2" stroke-dasharray="5,2" d="M544.48,-224.2C544.48,-224.2 395.69,-224.2 395.69,-224.2 389.69,-224.2 383.69,-218.2 383.69,-212.2 383.69,-212.2 383.69,-200.2 383.69,-200.2 383.69,-194.2 389.69,-188.2 395.69,-188.2 395.69,-188.2 544.48,-188.2 544.48,-188.2 550.48,-188.2 556.48,-194.2 556.48,-200.2 556.48,-200.2 556.48,-212.2 556.48,-212.2 556.48,-218.2 550.48,-224.2 544.48,-224.2"/>
<text xml:space="preserve" text-anchor="middle" x="470.09" y="-202.6" font-family="Helvetica,sans-Serif" font-size="12.00" fill="#fed7aa">transition_to_planning_phase</text>
</g>
<!-- greeting&#45;&gt;transition_to_planning_phase -->
<g id="edge1" class="edge">
<title>greeting&#45;&gt;transition_to_planning_phase</title>
<path fill="none" stroke="#6b7280" d="M470.09,-301.55C470.09,-277.93 470.09,-252.63 470.09,-234.19"/>
<polygon fill="#6b7280" stroke="#6b7280" points="472.89,-234.21 470.09,-226.21 467.29,-234.21 472.89,-234.21"/>
<text xml:space="preserve" text-anchor="middle" x="547.06" y="-266.2" font-family="Helvetica,sans-Serif" font-size="10.00" fill="#9ca3af"> &#160;&#160;Once their project scope is clear,</text>
<text xml:space="preserve" text-anchor="middle" x="547.06" y="-254.2" font-family="Helvetica,sans-Serif" font-size="10.00" fill="#9ca3af">move onto the planning phase</text>
</g>
<!-- planning_phase -->
<g id="node3" class="node">
<title>planning_phase</title>
<path fill="#172554" stroke="#1d4ed8" stroke-width="1.5" d="M622.5,-133.2C622.5,-133.2 317.67,-133.2 317.67,-133.2 311.67,-133.2 305.67,-127.2 305.67,-121.2 305.67,-121.2 305.67,-12 305.67,-12 305.67,-6 311.67,0 317.67,0 317.67,0 622.5,0 622.5,0 628.5,0 634.5,-6 634.5,-12 634.5,-12 634.5,-121.2 634.5,-121.2 634.5,-127.2 628.5,-133.2 622.5,-133.2"/>
<text xml:space="preserve" text-anchor="start" x="321.67" y="-107.8" font-family="Helvetica,sans-Serif" font-weight="bold" font-size="16.00" fill="#93c5fd">Planning Phase</text>
<text xml:space="preserve" text-anchor="start" x="321.67" y="-77.1" font-family="Helvetica,sans-Serif" font-weight="bold" font-size="11.00" fill="#60a5fa">Task instruction</text>
<text xml:space="preserve" text-anchor="start" x="321.67" y="-44.8" font-family="Helvetica,sans-Serif" font-size="12.00" fill="#dbeafe">Help the user plan their project on the Akapulu platform.</text>
<text xml:space="preserve" text-anchor="start" x="321.67" y="-14.4" font-family="Helvetica,sans-Serif" font-size="12.00" fill="#dbeafe">Use Akapulu_RAG to gather platform context.</text>
</g>
<!-- transition_to_planning_phase&#45;&gt;planning_phase -->
<g id="edge3" class="edge">
<title>transition_to_planning_phase&#45;&gt;planning_phase</title>
<path fill="none" stroke="#9ca3af" d="M470.09,-187.77C470.09,-176.12 470.09,-159.89 470.09,-143.13"/>
<polygon fill="#9ca3af" stroke="#9ca3af" points="472.89,-143.3 470.09,-135.3 467.29,-143.3 472.89,-143.3"/>
</g>
<!-- akapulu_rag -->
<g id="node5" class="node">
<title>akapulu_rag</title>
<path fill="#221638" stroke="#7c3aed" stroke-width="1.2" stroke-dasharray="5,2" d="M977.11,-92.4C977.11,-92.4 901.06,-92.4 901.06,-92.4 895.06,-92.4 889.06,-86.4 889.06,-80.4 889.06,-80.4 889.06,-52.8 889.06,-52.8 889.06,-46.8 895.06,-40.8 901.06,-40.8 901.06,-40.8 977.11,-40.8 977.11,-40.8 983.11,-40.8 989.11,-46.8 989.11,-52.8 989.11,-52.8 989.11,-80.4 989.11,-80.4 989.11,-86.4 983.11,-92.4 977.11,-92.4"/>
<text xml:space="preserve" text-anchor="start" x="901.06" y="-72.4" font-family="Helvetica,sans-Serif" font-size="12.00" fill="#c4b5fd">Akapulu_RAG</text>
<text xml:space="preserve" text-anchor="start" x="913.11" y="-51" font-family="Helvetica,sans-Serif" font-size="11.00" fill="#c4b5fd">(RAG tool)</text>
</g>
<!-- akapulu_rag&#45;&gt;planning_phase -->
<g id="edge2" class="edge">
<title>akapulu_rag&#45;&gt;planning_phase</title>
<path fill="none" stroke="#9ca3af" stroke-dasharray="5,2" d="M879.35,-66.6C820.31,-66.6 727.12,-66.6 644.57,-66.6"/>
<polygon fill="#9ca3af" stroke="#9ca3af" points="879.01,-69.4 887.01,-66.6 879.01,-63.8 879.01,-69.4"/>
<polygon fill="#9ca3af" stroke="#9ca3af" points="644.62,-63.8 636.62,-66.6 644.62,-69.4 644.62,-63.8"/>
<text xml:space="preserve" text-anchor="middle" x="761.78" y="-72.9" font-family="Helvetica,sans-Serif" font-size="11.00">Access information on the Akapulu platform.</text>
</g>
</g>
</svg>
