<?xml version="1.0" encoding="UTF-8" standalone="no"?>
<!DOCTYPE svg PUBLIC "-//W3C//DTD SVG 1.1//EN"
 "http://www.w3.org/Graphics/SVG/1.1/DTD/svg11.dtd">
<!-- Generated by graphviz version 14.1.3 (20260303.0454)
 -->
<!-- Title: DataIntakeAppointmentNodes Pages: 1 -->
<svg width="659pt" height="261pt"
 viewBox="0.00 0.00 659.00 261.00" xmlns="http://www.w3.org/2000/svg" xmlns:xlink="http://www.w3.org/1999/xlink">
<g id="graph0" class="graph" transform="scale(1 1) rotate(0) translate(28.8 232.4)">
<title>DataIntakeAppointmentNodes</title>
<!-- data_intake -->
<g id="node1" class="node">
<title>data_intake</title>
<path fill="#dbeafe" stroke="#1e3a8a" stroke-width="1.8" d="M328.83,-203.6C328.83,-203.6 134.73,-203.6 134.73,-203.6 128.73,-203.6 122.73,-197.6 122.73,-191.6 122.73,-191.6 122.73,-103.6 122.73,-103.6 122.73,-97.6 128.73,-91.6 134.73,-91.6 134.73,-91.6 328.83,-91.6 328.83,-91.6 334.83,-91.6 340.83,-97.6 340.83,-103.6 340.83,-103.6 340.83,-191.6 340.83,-191.6 340.83,-197.6 334.83,-203.6 328.83,-203.6"/>
<text xml:space="preserve" text-anchor="start" x="204.27" y="-187.6" font-family="Helvetica,sans-Serif" font-weight="bold" font-size="10.00">data_intake</text>
<text xml:space="preserve" text-anchor="start" x="134.73" y="-170.5" font-family="Helvetica,sans-Serif" font-weight="bold" font-size="9.00">Instructions</text>
<text xml:space="preserve" text-anchor="start" x="134.73" y="-151.8" font-family="Helvetica,sans-Serif" font-size="9.00">&#45; Collect basic patient information</text>
<text xml:space="preserve" text-anchor="start" x="134.73" y="-135" font-family="Helvetica,sans-Serif" font-size="9.00">&#45; Ask about symptoms one question at a time</text>
<text xml:space="preserve" text-anchor="start" x="134.73" y="-118.2" font-family="Helvetica,sans-Serif" font-size="9.00">&#45; View camera only when needed</text>
<text xml:space="preserve" text-anchor="start" x="134.73" y="-101.4" font-family="Helvetica,sans-Serif" font-size="9.00">&#45; Transition only after intake details are complete</text>
</g>
<!-- appointment_booking -->
<g id="node2" class="node">
<title>appointment_booking</title>
<path fill="#dcfce7" stroke="#14532d" stroke-width="1.8" d="M589.57,-195.2C589.57,-195.2 417.99,-195.2 417.99,-195.2 411.99,-195.2 405.99,-189.2 405.99,-183.2 405.99,-183.2 405.99,-112 405.99,-112 405.99,-106 411.99,-100 417.99,-100 417.99,-100 589.57,-100 589.57,-100 595.57,-100 601.57,-106 601.57,-112 601.57,-112 601.57,-183.2 601.57,-183.2 601.57,-189.2 595.57,-195.2 589.57,-195.2"/>
<text xml:space="preserve" text-anchor="start" x="451.56" y="-179.2" font-family="Helvetica,sans-Serif" font-weight="bold" font-size="10.00">appointment_booking</text>
<text xml:space="preserve" text-anchor="start" x="417.99" y="-162.1" font-family="Helvetica,sans-Serif" font-weight="bold" font-size="9.00">Instructions</text>
<text xml:space="preserve" text-anchor="start" x="417.99" y="-143.4" font-family="Helvetica,sans-Serif" font-size="9.00">&#45; Gather preferred date, time, and visit type</text>
<text xml:space="preserve" text-anchor="start" x="417.99" y="-126.6" font-family="Helvetica,sans-Serif" font-size="9.00">&#45; Confirm details before final booking</text>
<text xml:space="preserve" text-anchor="start" x="417.99" y="-109.8" font-family="Helvetica,sans-Serif" font-size="9.00">&#45; Use booking tool after confirmation</text>
</g>
<!-- data_intake&#45;&gt;appointment_booking -->
<!-- view_camera -->
<g id="node4" class="node">
<title>view_camera</title>
<path fill="#f3f4f6" stroke="#6b7280" stroke-width="1.6" stroke-dasharray="5,2" d="M113.56,-55.6C113.56,-55.6 12,-55.6 12,-55.6 6,-55.6 0,-49.6 0,-43.6 0,-43.6 0,-12 0,-12 0,-6 6,0 12,0 12,0 113.56,0 113.56,0 119.56,0 125.56,-6 125.56,-12 125.56,-12 125.56,-43.6 125.56,-43.6 125.56,-49.6 119.56,-55.6 113.56,-55.6"/>
<text xml:space="preserve" text-anchor="start" x="11" y="-39.6" font-family="Helvetica,sans-Serif" font-size="9.00" fill="#6b7280">tool</text>
<text xml:space="preserve" text-anchor="start" x="11" y="-25.8" font-family="Helvetica,sans-Serif" font-weight="bold" font-size="10.00">VIEW_CAMERA</text>
<text xml:space="preserve" text-anchor="start" x="11" y="-8.8" font-family="Helvetica,sans-Serif" font-size="9.00" fill="#4b5563">View patient camera input</text>
</g>
<!-- data_intake&#45;&gt;view_camera -->
<g id="edge1" class="edge">
<title>data_intake&#45;&gt;view_camera</title>
<path fill="none" stroke="#64748b" stroke-dasharray="5,2" d="M151.73,-90.8C137.33,-80.76 122.75,-70.6 109.68,-61.49"/>
<polygon fill="#64748b" stroke="#64748b" points="111.57,-59.4 103.41,-57.12 108.37,-63.99 111.57,-59.4"/>
</g>
<!-- transition_to_appointment_booking -->
<g id="node5" class="node">
<title>transition_to_appointment_booking</title>
<path fill="#f3f4f6" stroke="#6b7280" stroke-width="1.6" stroke-dasharray="5,2" d="M371.06,-55.6C371.06,-55.6 202.5,-55.6 202.5,-55.6 196.5,-55.6 190.5,-49.6 190.5,-43.6 190.5,-43.6 190.5,-12 190.5,-12 190.5,-6 196.5,0 202.5,0 202.5,0 371.06,0 371.06,0 377.06,0 383.06,-6 383.06,-12 383.06,-12 383.06,-43.6 383.06,-43.6 383.06,-49.6 377.06,-55.6 371.06,-55.6"/>
<text xml:space="preserve" text-anchor="start" x="201.5" y="-39.6" font-family="Helvetica,sans-Serif" font-size="9.00" fill="#6b7280">tool</text>
<text xml:space="preserve" text-anchor="start" x="201.5" y="-25.8" font-family="Helvetica,sans-Serif" font-weight="bold" font-size="10.00">transition_to_appointment_booking</text>
<text xml:space="preserve" text-anchor="start" x="201.5" y="-8.8" font-family="Helvetica,sans-Serif" font-size="9.00" fill="#4b5563">Transition to appointment booking</text>
</g>
<!-- data_intake&#45;&gt;transition_to_appointment_booking -->
<g id="edge2" class="edge">
<title>data_intake&#45;&gt;transition_to_appointment_booking</title>
<path fill="none" stroke="#64748b" stroke-dasharray="5,2" d="M257.83,-90.8C261.95,-81.98 266.11,-73.07 269.94,-64.85"/>
<polygon fill="#64748b" stroke="#64748b" points="272.47,-66.06 273.32,-57.63 267.4,-63.69 272.47,-66.06"/>
</g>
<!-- book_appointment -->
<g id="node3" class="node">
<title>book_appointment</title>
<path fill="#f3f4f6" stroke="#6b7280" stroke-width="1.6" stroke-dasharray="5,2" d="M547.5,-55.6C547.5,-55.6 460.06,-55.6 460.06,-55.6 454.06,-55.6 448.06,-49.6 448.06,-43.6 448.06,-43.6 448.06,-12 448.06,-12 448.06,-6 454.06,0 460.06,0 460.06,0 547.5,0 547.5,0 553.5,0 559.5,-6 559.5,-12 559.5,-12 559.5,-43.6 559.5,-43.6 559.5,-49.6 553.5,-55.6 547.5,-55.6"/>
<text xml:space="preserve" text-anchor="start" x="459.06" y="-39.6" font-family="Helvetica,sans-Serif" font-size="9.00" fill="#6b7280">tool</text>
<text xml:space="preserve" text-anchor="start" x="459.06" y="-25.8" font-family="Helvetica,sans-Serif" font-weight="bold" font-size="10.00">book_appointment</text>
<text xml:space="preserve" text-anchor="start" x="459.06" y="-8.8" font-family="Helvetica,sans-Serif" font-size="9.00" fill="#4b5563">Book the appointment</text>
</g>
<!-- appointment_booking&#45;&gt;book_appointment -->
<g id="edge4" class="edge">
<title>appointment_booking&#45;&gt;book_appointment</title>
<path fill="none" stroke="#64748b" stroke-dasharray="5,2" d="M503.78,-99.36C503.78,-88.19 503.78,-76.43 503.78,-65.79"/>
<polygon fill="#64748b" stroke="#64748b" points="506.58,-65.89 503.78,-57.89 500.98,-65.89 506.58,-65.89"/>
</g>
<!-- view_camera&#45;&gt;transition_to_appointment_booking -->
<!-- transition_to_appointment_booking&#45;&gt;appointment_booking -->
<g id="edge3" class="edge">
<title>transition_to_appointment_booking:e&#45;&gt;appointment_booking:w</title>
<path fill="none" stroke="#64748b" d="M384.06,-27.8C434.52,-27.8 361.89,-132.22 396.01,-146.09"/>
<polygon fill="#64748b" stroke="#64748b" points="395.14,-148.78 403.5,-147.35 396.07,-143.26 395.14,-148.78"/>
</g>
<!-- transition_to_appointment_booking&#45;&gt;book_appointment -->
</g>
</svg>
