<?xml version="1.0" encoding="UTF-8" standalone="no"?>
<!DOCTYPE svg PUBLIC "-//W3C//DTD SVG 1.1//EN"
 "http://www.w3.org/Graphics/SVG/1.1/DTD/svg11.dtd">
<!-- Generated by graphviz version 14.1.3 (20260303.0454)
 -->
<!-- Title: DataIntakeAppointmentNodes Pages: 1 -->
<svg width="658pt" height="252pt"
 viewBox="0.00 0.00 658.00 252.00" xmlns="http://www.w3.org/2000/svg" xmlns:xlink="http://www.w3.org/1999/xlink">
<g id="graph0" class="graph" transform="scale(1 1) rotate(0) translate(28.8 223.55)">
<title>DataIntakeAppointmentNodes</title>
<!-- data_intake -->
<g id="node1" class="node">
<title>data_intake</title>
<path fill="#dbeafe" stroke="#1e3a8a" stroke-width="1.8" d="M326.5,-194.75C326.5,-194.75 129.25,-194.75 129.25,-194.75 123.25,-194.75 117.25,-188.75 117.25,-182.75 117.25,-182.75 117.25,-100.75 117.25,-100.75 117.25,-94.75 123.25,-88.75 129.25,-88.75 129.25,-88.75 326.5,-88.75 326.5,-88.75 332.5,-88.75 338.5,-94.75 338.5,-100.75 338.5,-100.75 338.5,-182.75 338.5,-182.75 338.5,-188.75 332.5,-194.75 326.5,-194.75"/>
<text xml:space="preserve" text-anchor="start" x="201.62" y="-178.25" font-family="Helvetica,sans-Serif" font-weight="bold" font-size="10.00">data_intake</text>
<text xml:space="preserve" text-anchor="start" x="129.25" y="-161.95" font-family="Helvetica,sans-Serif" font-weight="bold" font-size="9.00">Instructions</text>
<text xml:space="preserve" text-anchor="start" x="129.25" y="-146.25" font-family="Helvetica,sans-Serif" font-size="9.00">&#45; Collect basic patient information</text>
<text xml:space="preserve" text-anchor="start" x="129.25" y="-130.5" font-family="Helvetica,sans-Serif" font-size="9.00">&#45; Ask about symptoms one question at a time</text>
<text xml:space="preserve" text-anchor="start" x="129.25" y="-114.75" font-family="Helvetica,sans-Serif" font-size="9.00">&#45; View camera only when needed</text>
<text xml:space="preserve" text-anchor="start" x="129.25" y="-99" font-family="Helvetica,sans-Serif" font-size="9.00">&#45; Transition only after intake details are complete</text>
</g>
<!-- appointment_booking -->
<g id="node2" class="node">
<title>appointment_booking</title>
<path fill="#dcfce7" stroke="#14532d" stroke-width="1.8" d="M588.12,-186.88C588.12,-186.88 415.62,-186.88 415.62,-186.88 409.62,-186.88 403.62,-180.88 403.62,-174.88 403.62,-174.88 403.62,-108.62 403.62,-108.62 403.62,-102.62 409.62,-96.62 415.62,-96.62 415.62,-96.62 588.12,-96.62 588.12,-96.62 594.12,-96.62 600.12,-102.62 600.12,-108.62 600.12,-108.62 600.12,-174.88 600.12,-174.88 600.12,-180.88 594.12,-186.88 588.12,-186.88"/>
<text xml:space="preserve" text-anchor="start" x="450.88" y="-170.38" font-family="Helvetica,sans-Serif" font-weight="bold" font-size="10.00">appointment_booking</text>
<text xml:space="preserve" text-anchor="start" x="415.62" y="-154.07" font-family="Helvetica,sans-Serif" font-weight="bold" font-size="9.00">Instructions</text>
<text xml:space="preserve" text-anchor="start" x="415.62" y="-138.38" font-family="Helvetica,sans-Serif" font-size="9.00">&#45; Gather preferred date, time, and visit type</text>
<text xml:space="preserve" text-anchor="start" x="415.62" y="-122.62" font-family="Helvetica,sans-Serif" font-size="9.00">&#45; Confirm details before final booking</text>
<text xml:space="preserve" text-anchor="start" x="415.62" y="-106.88" font-family="Helvetica,sans-Serif" font-size="9.00">&#45; Use booking tool after confirmation</text>
</g>
<!-- data_intake&#45;&gt;appointment_booking -->
<!-- view_camera -->
<g id="node4" class="node">
<title>view_camera</title>
<path fill="#f3f4f6" stroke="#6b7280" stroke-width="1.6" stroke-dasharray="5,2" d="M115.75,-52.75C115.75,-52.75 12,-52.75 12,-52.75 6,-52.75 0,-46.75 0,-40.75 0,-40.75 0,-12 0,-12 0,-6 6,0 12,0 12,0 115.75,0 115.75,0 121.75,0 127.75,-6 127.75,-12 127.75,-12 127.75,-40.75 127.75,-40.75 127.75,-46.75 121.75,-52.75 115.75,-52.75"/>
<text xml:space="preserve" text-anchor="start" x="11" y="-38.25" font-family="Helvetica,sans-Serif" font-size="9.00" fill="#6b7280">tool</text>
<text xml:space="preserve" text-anchor="start" x="11" y="-23.5" font-family="Helvetica,sans-Serif" font-weight="bold" font-size="10.00">VIEW_CAMERA</text>
<text xml:space="preserve" text-anchor="start" x="11" y="-9.25" font-family="Helvetica,sans-Serif" font-size="9.00" fill="#4b5563">View patient camera input</text>
</g>
<!-- data_intake&#45;&gt;view_camera -->
<g id="edge1" class="edge">
<title>data_intake&#45;&gt;view_camera</title>
<path fill="none" stroke="#64748b" stroke-dasharray="5,2" d="M151.64,-88.05C137.09,-77.99 122.31,-67.77 109.12,-58.65"/>
<polygon fill="#64748b" stroke="#64748b" points="110.97,-56.53 102.8,-54.28 107.78,-61.13 110.97,-56.53"/>
</g>
<!-- transition_to_appointment_booking -->
<g id="node5" class="node">
<title>transition_to_appointment_booking</title>
<path fill="#f3f4f6" stroke="#6b7280" stroke-width="1.6" stroke-dasharray="5,2" d="M368.75,-52.75C368.75,-52.75 205,-52.75 205,-52.75 199,-52.75 193,-46.75 193,-40.75 193,-40.75 193,-12 193,-12 193,-6 199,0 205,0 205,0 368.75,0 368.75,0 374.75,0 380.75,-6 380.75,-12 380.75,-12 380.75,-40.75 380.75,-40.75 380.75,-46.75 374.75,-52.75 368.75,-52.75"/>
<text xml:space="preserve" text-anchor="start" x="204" y="-38.25" font-family="Helvetica,sans-Serif" font-size="9.00" fill="#6b7280">tool</text>
<text xml:space="preserve" text-anchor="start" x="204" y="-23.5" font-family="Helvetica,sans-Serif" font-weight="bold" font-size="10.00">transition_to_appointment_booking</text>
<text xml:space="preserve" text-anchor="start" x="204" y="-9.25" font-family="Helvetica,sans-Serif" font-size="9.00" fill="#4b5563">Transition to appointment booking</text>
</g>
<!-- data_intake&#45;&gt;transition_to_appointment_booking -->
<g id="edge2" class="edge">
<title>data_intake&#45;&gt;transition_to_appointment_booking</title>
<path fill="none" stroke="#64748b" stroke-dasharray="5,2" d="M255.3,-88.05C259.95,-79.12 264.66,-70.06 268.98,-61.76"/>
<polygon fill="#64748b" stroke="#64748b" points="271.41,-63.15 272.62,-54.76 266.45,-60.57 271.41,-63.15"/>
</g>
<!-- book_appointment -->
<g id="node3" class="node">
<title>book_appointment</title>
<path fill="#f3f4f6" stroke="#6b7280" stroke-width="1.6" stroke-dasharray="5,2" d="M545.5,-52.75C545.5,-52.75 458.25,-52.75 458.25,-52.75 452.25,-52.75 446.25,-46.75 446.25,-40.75 446.25,-40.75 446.25,-12 446.25,-12 446.25,-6 452.25,0 458.25,0 458.25,0 545.5,0 545.5,0 551.5,0 557.5,-6 557.5,-12 557.5,-12 557.5,-40.75 557.5,-40.75 557.5,-46.75 551.5,-52.75 545.5,-52.75"/>
<text xml:space="preserve" text-anchor="start" x="457.25" y="-38.25" font-family="Helvetica,sans-Serif" font-size="9.00" fill="#6b7280">tool</text>
<text xml:space="preserve" text-anchor="start" x="457.25" y="-23.5" font-family="Helvetica,sans-Serif" font-weight="bold" font-size="10.00">book_appointment</text>
<text xml:space="preserve" text-anchor="start" x="457.25" y="-9.25" font-family="Helvetica,sans-Serif" font-size="9.00" fill="#4b5563">Book the appointment</text>
</g>
<!-- appointment_booking&#45;&gt;book_appointment -->
<g id="edge4" class="edge">
<title>appointment_booking&#45;&gt;book_appointment</title>
<path fill="none" stroke="#64748b" stroke-dasharray="5,2" d="M501.88,-95.94C501.88,-84.85 501.88,-73.13 501.88,-62.57"/>
<polygon fill="#64748b" stroke="#64748b" points="504.68,-62.77 501.88,-54.77 499.08,-62.77 504.68,-62.77"/>
</g>
<!-- view_camera&#45;&gt;transition_to_appointment_booking -->
<!-- transition_to_appointment_booking&#45;&gt;appointment_booking -->
<g id="edge3" class="edge">
<title>transition_to_appointment_booking:e&#45;&gt;appointment_booking:w</title>
<path fill="none" stroke="#64748b" d="M381.75,-26.38C430.2,-26.38 361.57,-126.1 393.55,-140.12"/>
<polygon fill="#64748b" stroke="#64748b" points="392.77,-142.82 401.14,-141.48 393.76,-137.31 392.77,-142.82"/>
</g>
<!-- transition_to_appointment_booking&#45;&gt;book_appointment -->
</g>
</svg>
