<?xml version="1.0" encoding="UTF-8" standalone="no"?>
<!DOCTYPE svg PUBLIC "-//W3C//DTD SVG 1.1//EN"
 "http://www.w3.org/Graphics/SVG/1.1/DTD/svg11.dtd">
<!-- Generated by graphviz version 14.1.3 (20260303.0454)
 -->
<!-- Title: HealthcareFlow Pages: 1 -->
<svg width="1298pt" height="1942pt"
 viewBox="0.00 0.00 1298.00 1942.00" xmlns="http://www.w3.org/2000/svg" xmlns:xlink="http://www.w3.org/1999/xlink">
<g id="graph0" class="graph" transform="scale(1 1) rotate(0) translate(57.6 1884.4)">
<title>HealthcareFlow</title>
<polygon fill="#0a0d10" stroke="none" points="-57.6,57.6 -57.6,-1884.4 1240.55,-1884.4 1240.55,57.6 -57.6,57.6"/>
<!-- intro -->
<g id="node1" class="node">
<title>intro</title>
<path fill="#1f2937" stroke="#475569" d="M360.34,-1826.8C360.34,-1826.8 27.36,-1826.8 27.36,-1826.8 21.36,-1826.8 15.36,-1820.8 15.36,-1814.8 15.36,-1814.8 15.36,-1651.6 15.36,-1651.6 15.36,-1645.6 21.36,-1639.6 27.36,-1639.6 27.36,-1639.6 360.34,-1639.6 360.34,-1639.6 366.34,-1639.6 372.34,-1645.6 372.34,-1651.6 372.34,-1651.6 372.34,-1814.8 372.34,-1814.8 372.34,-1820.8 366.34,-1826.8 360.34,-1826.8"/>
<text xml:space="preserve" text-anchor="start" x="176.08" y="-1796.6" font-family="Helvetica,sans-Serif" font-weight="bold" font-size="16.00" fill="#e5e7eb">intro</text>
<text xml:space="preserve" text-anchor="start" x="193.43" y="-1777.8" font-family="Helvetica,sans-Serif" font-size="3.00" fill="#e5e7eb"> </text>
<text xml:space="preserve" text-anchor="start" x="35.76" y="-1758.3" font-family="Helvetica,sans-Serif" font-weight="bold" font-size="11.00" fill="#94a3b8">Task instruction</text>
<text xml:space="preserve" text-anchor="start" x="35.76" y="-1732" font-family="Helvetica,sans-Serif" font-size="12.00" fill="#e5e7eb">Greet the patient warmly and introduce yourself</text>
<text xml:space="preserve" text-anchor="start" x="35.76" y="-1707.6" font-family="Helvetica,sans-Serif" font-size="12.00" fill="#e5e7eb">as a medical screening assistant.</text>
<text xml:space="preserve" text-anchor="start" x="35.76" y="-1683.2" font-family="Helvetica,sans-Serif" font-size="12.00" fill="#e5e7eb">Explain that you&#39;ll help with a brief screening questionnaire.</text>
<text xml:space="preserve" text-anchor="start" x="35.76" y="-1658.8" font-family="Helvetica,sans-Serif" font-size="12.00" fill="#e5e7eb">After consent, use the transition tool to move to data intake.</text>
</g>
<!-- t_intro_to_intake -->
<g id="node6" class="node">
<title>t_intro_to_intake</title>
<path fill="#3f2a1d" stroke="#c2410c" stroke-dasharray="5,2" d="M263.3,-1508.8C263.3,-1508.8 124.4,-1508.8 124.4,-1508.8 118.4,-1508.8 112.4,-1502.8 112.4,-1496.8 112.4,-1496.8 112.4,-1484.8 112.4,-1484.8 112.4,-1478.8 118.4,-1472.8 124.4,-1472.8 124.4,-1472.8 263.3,-1472.8 263.3,-1472.8 269.3,-1472.8 275.3,-1478.8 275.3,-1484.8 275.3,-1484.8 275.3,-1496.8 275.3,-1496.8 275.3,-1502.8 269.3,-1508.8 263.3,-1508.8"/>
<text xml:space="preserve" text-anchor="middle" x="193.85" y="-1487.2" font-family="Helvetica,sans-Serif" font-size="12.00" fill="#fed7aa">transition_to_data_intake</text>
</g>
<!-- intro&#45;&gt;t_intro_to_intake -->
<g id="edge1" class="edge">
<title>intro&#45;&gt;t_intro_to_intake</title>
<path fill="none" stroke="#9ca3af" d="M193.85,-1639.26C193.85,-1596.94 193.85,-1549.87 193.85,-1520.55"/>
<polygon fill="#9ca3af" stroke="#9ca3af" points="197.35,-1520.65 193.85,-1510.65 190.35,-1520.65 197.35,-1520.65"/>
<text xml:space="preserve" text-anchor="middle" x="294.25" y="-1577.8" font-family="Helvetica,sans-Serif" font-size="12.00" fill="#e5e7eb"> &#160;Use this function to transition to</text>
<text xml:space="preserve" text-anchor="middle" x="294.25" y="-1563.4" font-family="Helvetica,sans-Serif" font-size="12.00" fill="#e5e7eb"> &#160;the data_intake phase after consent.</text>
</g>
<!-- data_intake -->
<g id="node2" class="node">
<title>data_intake</title>
<path fill="#1f2937" stroke="#475569" d="M375.7,-1369.8C375.7,-1369.8 12,-1369.8 12,-1369.8 6,-1369.8 0,-1363.8 0,-1357.8 0,-1357.8 0,-1181 0,-1181 0,-1175 6,-1169 12,-1169 12,-1169 375.7,-1169 375.7,-1169 381.7,-1169 387.7,-1175 387.7,-1181 387.7,-1181 387.7,-1357.8 387.7,-1357.8 387.7,-1363.8 381.7,-1369.8 375.7,-1369.8"/>
<text xml:space="preserve" text-anchor="start" x="149.83" y="-1339.6" font-family="Helvetica,sans-Serif" font-weight="bold" font-size="16.00" fill="#e5e7eb">data_intake</text>
<text xml:space="preserve" text-anchor="start" x="193.43" y="-1320.8" font-family="Helvetica,sans-Serif" font-size="3.00" fill="#e5e7eb"> </text>
<text xml:space="preserve" text-anchor="start" x="20.4" y="-1301.3" font-family="Helvetica,sans-Serif" font-weight="bold" font-size="11.00" fill="#94a3b8">Task instruction</text>
<text xml:space="preserve" text-anchor="start" x="20.4" y="-1275" font-family="Helvetica,sans-Serif" font-size="12.00" fill="#e5e7eb">Collect full name, age, primary reason for visit, and symptoms.</text>
<text xml:space="preserve" text-anchor="start" x="20.4" y="-1250.6" font-family="Helvetica,sans-Serif" font-size="12.00" fill="#e5e7eb">Ask one question at a time and keep the tone conversational.</text>
<text xml:space="preserve" text-anchor="start" x="20.4" y="-1226.2" font-family="Helvetica,sans-Serif" font-size="12.00" fill="#e5e7eb">If the patient shows something on camera, call the vision tool.</text>
<text xml:space="preserve" text-anchor="start" x="20.4" y="-1201.8" font-family="Helvetica,sans-Serif" font-size="12.00" fill="#e5e7eb">When enough info is gathered, transition to appointment booking.</text>
<text xml:space="preserve" text-anchor="start" x="193.43" y="-1186.4" font-family="Helvetica,sans-Serif" font-size="3.00" fill="#e5e7eb"> </text>
</g>
<!-- t_intake_to_booking -->
<g id="node7" class="node">
<title>t_intake_to_booking</title>
<path fill="#3f2a1d" stroke="#c2410c" stroke-dasharray="5,2" d="M289.65,-1038.2C289.65,-1038.2 98.05,-1038.2 98.05,-1038.2 92.05,-1038.2 86.05,-1032.2 86.05,-1026.2 86.05,-1026.2 86.05,-1014.2 86.05,-1014.2 86.05,-1008.2 92.05,-1002.2 98.05,-1002.2 98.05,-1002.2 289.65,-1002.2 289.65,-1002.2 295.65,-1002.2 301.65,-1008.2 301.65,-1014.2 301.65,-1014.2 301.65,-1026.2 301.65,-1026.2 301.65,-1032.2 295.65,-1038.2 289.65,-1038.2"/>
<text xml:space="preserve" text-anchor="middle" x="193.85" y="-1016.6" font-family="Helvetica,sans-Serif" font-size="12.00" fill="#fed7aa">transition_to_appointment_booking</text>
</g>
<!-- data_intake&#45;&gt;t_intake_to_booking -->
<g id="edge3" class="edge">
<title>data_intake&#45;&gt;t_intake_to_booking</title>
<path fill="none" stroke="#9ca3af" d="M193.85,-1168.57C193.85,-1125.65 193.85,-1078.77 193.85,-1049.67"/>
<polygon fill="#9ca3af" stroke="#9ca3af" points="197.35,-1049.86 193.85,-1039.86 190.35,-1049.86 197.35,-1049.86"/>
<text xml:space="preserve" text-anchor="middle" x="274.9" y="-1107.2" font-family="Helvetica,sans-Serif" font-size="12.00" fill="#e5e7eb"> &#160;Transition to the appointment</text>
<text xml:space="preserve" text-anchor="middle" x="274.9" y="-1092.8" font-family="Helvetica,sans-Serif" font-size="12.00" fill="#e5e7eb"> &#160;booking phase.</text>
</g>
<!-- intake_vision -->
<g id="node10" class="node">
<title>intake_vision</title>
<path fill="#0f2a32" stroke="#0e7490" stroke-dasharray="5,2" d="M757.59,-1294.6C757.59,-1294.6 664.11,-1294.6 664.11,-1294.6 658.11,-1294.6 652.11,-1288.6 652.11,-1282.6 652.11,-1282.6 652.11,-1256.2 652.11,-1256.2 652.11,-1250.2 658.11,-1244.2 664.11,-1244.2 664.11,-1244.2 757.59,-1244.2 757.59,-1244.2 763.59,-1244.2 769.59,-1250.2 769.59,-1256.2 769.59,-1256.2 769.59,-1282.6 769.59,-1282.6 769.59,-1288.6 763.59,-1294.6 757.59,-1294.6"/>
<text xml:space="preserve" text-anchor="middle" x="710.85" y="-1273" font-family="Helvetica,sans-Serif" font-size="12.00" fill="#67e8f9">VIEW_CAMERA</text>
<text xml:space="preserve" text-anchor="middle" x="710.85" y="-1258.6" font-family="Helvetica,sans-Serif" font-size="12.00" fill="#67e8f9">(vision)</text>
</g>
<!-- data_intake&#45;&gt;intake_vision -->
<g id="edge9" class="edge">
<title>data_intake&#45;&gt;intake_vision</title>
<path fill="none" stroke="#9ca3af" stroke-dasharray="5,2" d="M387.83,-1269.4C481.67,-1269.4 587.62,-1269.4 651.8,-1269.4"/>
<text xml:space="preserve" text-anchor="middle" x="519.9" y="-1290.4" font-family="Helvetica,sans-Serif" font-size="12.00" fill="#e5e7eb"> &#160;Use this tool when the user asks</text>
<text xml:space="preserve" text-anchor="middle" x="519.9" y="-1276" font-family="Helvetica,sans-Serif" font-size="12.00" fill="#e5e7eb"> &#160;you to look at the camera.</text>
</g>
<!-- appointment_booking -->
<g id="node3" class="node">
<title>appointment_booking</title>
<path fill="#1f2937" stroke="#475569" d="M341.98,-899.2C341.98,-899.2 45.72,-899.2 45.72,-899.2 39.72,-899.2 33.72,-893.2 33.72,-887.2 33.72,-887.2 33.72,-724 33.72,-724 33.72,-718 39.72,-712 45.72,-712 45.72,-712 341.98,-712 341.98,-712 347.98,-712 353.98,-718 353.98,-724 353.98,-724 353.98,-887.2 353.98,-887.2 353.98,-893.2 347.98,-899.2 341.98,-899.2"/>
<text xml:space="preserve" text-anchor="start" x="110.3" y="-869" font-family="Helvetica,sans-Serif" font-weight="bold" font-size="16.00" fill="#e5e7eb">appointment_booking</text>
<text xml:space="preserve" text-anchor="start" x="193.43" y="-850.2" font-family="Helvetica,sans-Serif" font-size="3.00" fill="#e5e7eb"> </text>
<text xml:space="preserve" text-anchor="start" x="54.12" y="-830.7" font-family="Helvetica,sans-Serif" font-weight="bold" font-size="11.00" fill="#94a3b8">Task instruction</text>
<text xml:space="preserve" text-anchor="start" x="54.12" y="-804.4" font-family="Helvetica,sans-Serif" font-size="12.00" fill="#e5e7eb">Help the patient schedule an appointment.</text>
<text xml:space="preserve" text-anchor="start" x="54.12" y="-780" font-family="Helvetica,sans-Serif" font-size="12.00" fill="#e5e7eb">Ask for preferred date, time, and in&#45;person vs virtual.</text>
<text xml:space="preserve" text-anchor="start" x="54.12" y="-755.6" font-family="Helvetica,sans-Serif" font-size="12.00" fill="#e5e7eb">After collecting details, use the HTTP booking tool.</text>
<text xml:space="preserve" text-anchor="start" x="54.12" y="-733.4" font-family="Helvetica,sans-Serif" font-size="12.00" fill="#e5e7eb">Note: today is </text>
<text xml:space="preserve" text-anchor="start" x="130.83" y="-733.4" font-family="Helvetica,sans-Serif" font-weight="bold" font-size="12.00" fill="#7c3aed">{{runtime.today}}</text>
<text xml:space="preserve" text-anchor="start" x="228.85" y="-733.4" font-family="Helvetica,sans-Serif" font-size="12.00" fill="#e5e7eb">.</text>
</g>
<!-- booking_http -->
<g id="node9" class="node">
<title>booking_http</title>
<path fill="#10261a" stroke="#15803d" stroke-dasharray="5,2" d="M669.62,-830.8C669.62,-830.8 566.08,-830.8 566.08,-830.8 560.08,-830.8 554.08,-824.8 554.08,-818.8 554.08,-818.8 554.08,-792.4 554.08,-792.4 554.08,-786.4 560.08,-780.4 566.08,-780.4 566.08,-780.4 669.62,-780.4 669.62,-780.4 675.62,-780.4 681.62,-786.4 681.62,-792.4 681.62,-792.4 681.62,-818.8 681.62,-818.8 681.62,-824.8 675.62,-830.8 669.62,-830.8"/>
<text xml:space="preserve" text-anchor="middle" x="617.85" y="-809.2" font-family="Helvetica,sans-Serif" font-size="12.00" fill="#86efac">book_appointment</text>
<text xml:space="preserve" text-anchor="middle" x="617.85" y="-794.8" font-family="Helvetica,sans-Serif" font-size="12.00" fill="#86efac">(http)</text>
</g>
<!-- appointment_booking&#45;&gt;booking_http -->
<g id="edge5" class="edge">
<title>appointment_booking&#45;&gt;booking_http</title>
<path fill="none" stroke="#9ca3af" stroke-dasharray="5,2" d="M354.45,-805.6C423.83,-805.6 501.02,-805.6 553.81,-805.6"/>
<text xml:space="preserve" text-anchor="middle" x="454.03" y="-826.6" font-family="Helvetica,sans-Serif" font-size="12.00" fill="#e5e7eb"> &#160;Call this tool to book</text>
<text xml:space="preserve" text-anchor="middle" x="454.03" y="-812.2" font-family="Helvetica,sans-Serif" font-size="12.00" fill="#e5e7eb"> &#160;the appointment.</text>
</g>
<!-- qa -->
<g id="node4" class="node">
<title>qa</title>
<path fill="#1f2937" stroke="#475569" d="M816.35,-609C816.35,-609 419.34,-609 419.34,-609 413.34,-609 407.34,-603 407.34,-597 407.34,-597 407.34,-458.2 407.34,-458.2 407.34,-452.2 413.34,-446.2 419.34,-446.2 419.34,-446.2 816.35,-446.2 816.35,-446.2 822.35,-446.2 828.35,-452.2 828.35,-458.2 828.35,-458.2 828.35,-597 828.35,-597 828.35,-603 822.35,-609 816.35,-609"/>
<text xml:space="preserve" text-anchor="start" x="608.51" y="-578.8" font-family="Helvetica,sans-Serif" font-weight="bold" font-size="16.00" fill="#e5e7eb">qa</text>
<text xml:space="preserve" text-anchor="start" x="617.43" y="-560" font-family="Helvetica,sans-Serif" font-size="3.00" fill="#e5e7eb"> </text>
<text xml:space="preserve" text-anchor="start" x="427.74" y="-540.5" font-family="Helvetica,sans-Serif" font-weight="bold" font-size="11.00" fill="#94a3b8">Task instruction</text>
<text xml:space="preserve" text-anchor="start" x="427.74" y="-514.2" font-family="Helvetica,sans-Serif" font-size="12.00" fill="#e5e7eb">Answer patient questions about screening, clinic details, or other topics.</text>
<text xml:space="preserve" text-anchor="start" x="427.74" y="-489.8" font-family="Helvetica,sans-Serif" font-size="12.00" fill="#e5e7eb">Be helpful, empathetic, concise, and use RAG for clinic questions.</text>
<text xml:space="preserve" text-anchor="start" x="427.74" y="-465.4" font-family="Helvetica,sans-Serif" font-size="12.00" fill="#e5e7eb">When the patient is ready to conclude, use the transition tool.</text>
</g>
<!-- t_qa_to_end -->
<g id="node8" class="node">
<title>t_qa_to_end</title>
<path fill="#3f2a1d" stroke="#c2410c" stroke-dasharray="5,2" d="M695.64,-315.4C695.64,-315.4 540.06,-315.4 540.06,-315.4 534.06,-315.4 528.06,-309.4 528.06,-303.4 528.06,-303.4 528.06,-291.4 528.06,-291.4 528.06,-285.4 534.06,-279.4 540.06,-279.4 540.06,-279.4 695.64,-279.4 695.64,-279.4 701.64,-279.4 707.64,-285.4 707.64,-291.4 707.64,-291.4 707.64,-303.4 707.64,-303.4 707.64,-309.4 701.64,-315.4 695.64,-315.4"/>
<text xml:space="preserve" text-anchor="middle" x="617.85" y="-293.8" font-family="Helvetica,sans-Serif" font-size="12.00" fill="#fed7aa">transition_to_end_screening</text>
</g>
<!-- qa&#45;&gt;t_qa_to_end -->
<g id="edge7" class="edge">
<title>qa&#45;&gt;t_qa_to_end</title>
<path fill="none" stroke="#9ca3af" d="M617.85,-445.82C617.85,-404.35 617.85,-356.45 617.85,-326.78"/>
<polygon fill="#9ca3af" stroke="#9ca3af" points="621.35,-327.14 617.85,-317.14 614.35,-327.14 621.35,-327.14"/>
<text xml:space="preserve" text-anchor="middle" x="682.55" y="-384.4" font-family="Helvetica,sans-Serif" font-size="12.00" fill="#e5e7eb"> &#160;Transition to the end of</text>
<text xml:space="preserve" text-anchor="middle" x="682.55" y="-370" font-family="Helvetica,sans-Serif" font-size="12.00" fill="#e5e7eb"> &#160;the screening session.</text>
</g>
<!-- qa_rag -->
<g id="node11" class="node">
<title>qa_rag</title>
<path fill="#221638" stroke="#7c3aed" stroke-dasharray="5,2" d="M1170.95,-552.8C1170.95,-552.8 1078.75,-552.8 1078.75,-552.8 1072.75,-552.8 1066.75,-546.8 1066.75,-540.8 1066.75,-540.8 1066.75,-514.4 1066.75,-514.4 1066.75,-508.4 1072.75,-502.4 1078.75,-502.4 1078.75,-502.4 1170.95,-502.4 1170.95,-502.4 1176.95,-502.4 1182.95,-508.4 1182.95,-514.4 1182.95,-514.4 1182.95,-540.8 1182.95,-540.8 1182.95,-546.8 1176.95,-552.8 1170.95,-552.8"/>
<text xml:space="preserve" text-anchor="middle" x="1124.85" y="-531.2" font-family="Helvetica,sans-Serif" font-size="12.00" fill="#c4b5fd">about_our_clinic</text>
<text xml:space="preserve" text-anchor="middle" x="1124.85" y="-516.8" font-family="Helvetica,sans-Serif" font-size="12.00" fill="#c4b5fd">(rag)</text>
</g>
<!-- qa&#45;&gt;qa_rag -->
<g id="edge10" class="edge">
<title>qa&#45;&gt;qa_rag</title>
<path fill="none" stroke="#9ca3af" stroke-dasharray="5,2" d="M828.82,-527.6C915.15,-527.6 1008.25,-527.6 1066.52,-527.6"/>
<text xml:space="preserve" text-anchor="middle" x="947.55" y="-548.6" font-family="Helvetica,sans-Serif" font-size="12.00" fill="#e5e7eb"> &#160;a RAG tool with information</text>
<text xml:space="preserve" text-anchor="middle" x="947.55" y="-534.2" font-family="Helvetica,sans-Serif" font-size="12.00" fill="#e5e7eb"> &#160;about our clinic</text>
</g>
<!-- end -->
<g id="node5" class="node">
<title>end</title>
<path fill="#1f2937" stroke="#475569" d="M763,-176.4C763,-176.4 472.7,-176.4 472.7,-176.4 466.7,-176.4 460.7,-170.4 460.7,-164.4 460.7,-164.4 460.7,-12 460.7,-12 460.7,-6 466.7,0 472.7,0 472.7,0 763,0 763,0 769,0 775,-6 775,-12 775,-12 775,-164.4 775,-164.4 775,-170.4 769,-176.4 763,-176.4"/>
<text xml:space="preserve" text-anchor="start" x="603.63" y="-146.2" font-family="Helvetica,sans-Serif" font-weight="bold" font-size="16.00" fill="#e5e7eb">end</text>
<text xml:space="preserve" text-anchor="start" x="617.43" y="-127.4" font-family="Helvetica,sans-Serif" font-size="3.00" fill="#e5e7eb"> </text>
<text xml:space="preserve" text-anchor="start" x="481.1" y="-107.9" font-family="Helvetica,sans-Serif" font-weight="bold" font-size="11.00" fill="#6b7280">Task instruction</text>
<text xml:space="preserve" text-anchor="start" x="481.1" y="-81.6" font-family="Helvetica,sans-Serif" font-size="12.00" fill="#e5e7eb">Thank the patient for completing the screening.</text>
<text xml:space="preserve" text-anchor="start" x="481.1" y="-57.2" font-family="Helvetica,sans-Serif" font-size="12.00" fill="#e5e7eb">Provide brief next steps, then end the conversation.</text>
<text xml:space="preserve" text-anchor="start" x="617.43" y="-41.8" font-family="Helvetica,sans-Serif" font-size="3.00" fill="#e5e7eb"> </text>
<text xml:space="preserve" text-anchor="start" x="481.1" y="-21.4" font-family="Helvetica,sans-Serif" font-weight="bold" font-size="11.00" fill="#94a3b8">end_after_bot_response</text>
<text xml:space="preserve" text-anchor="start" x="608.86" y="-21.4" font-family="Helvetica,sans-Serif" font-size="12.00" fill="#e5e7eb"> </text>
<text xml:space="preserve" text-anchor="start" x="612.2" y="-21.4" font-family="Helvetica,sans-Serif" font-style="italic" font-size="11.00" fill="#b45309">true</text>
</g>
<!-- t_intro_to_intake&#45;&gt;data_intake -->
<g id="edge2" class="edge">
<title>t_intro_to_intake&#45;&gt;data_intake</title>
<path fill="none" stroke="#9ca3af" d="M193.85,-1472.58C193.85,-1452.39 193.85,-1417.16 193.85,-1381.7"/>
<polygon fill="#9ca3af" stroke="#9ca3af" points="197.35,-1381.71 193.85,-1371.71 190.35,-1381.71 197.35,-1381.71"/>
</g>
<!-- t_intake_to_booking&#45;&gt;appointment_booking -->
<g id="edge4" class="edge">
<title>t_intake_to_booking&#45;&gt;appointment_booking</title>
<path fill="none" stroke="#9ca3af" d="M193.85,-1001.8C193.85,-981.44 193.85,-946.03 193.85,-910.91"/>
<polygon fill="#9ca3af" stroke="#9ca3af" points="197.35,-911.05 193.85,-901.05 190.35,-911.05 197.35,-911.05"/>
</g>
<!-- t_qa_to_end&#45;&gt;end -->
<g id="edge8" class="edge">
<title>t_qa_to_end&#45;&gt;end</title>
<path fill="none" stroke="#9ca3af" d="M617.85,-279.09C617.85,-258.64 617.85,-222.97 617.85,-188.02"/>
<polygon fill="#9ca3af" stroke="#9ca3af" points="621.35,-188.23 617.85,-178.23 614.35,-188.23 621.35,-188.23"/>
</g>
<!-- booking_http&#45;&gt;qa -->
<g id="edge6" class="edge">
<title>booking_http&#45;&gt;qa</title>
<path fill="none" stroke="#9ca3af" d="M617.85,-780.11C617.85,-744.62 617.85,-677.01 617.85,-620.82"/>
<polygon fill="#9ca3af" stroke="#9ca3af" points="621.35,-620.9 617.85,-610.9 614.35,-620.9 621.35,-620.9"/>
</g>
<!-- role_instruction -->
<g id="node12" class="node">
<title>role_instruction</title>
<path fill="#3a2a14" stroke="#b45309" stroke-dasharray="1,5" d="M1030.94,-1810.8C1030.94,-1810.8 470.75,-1810.8 470.75,-1810.8 464.75,-1810.8 458.75,-1804.8 458.75,-1798.8 458.75,-1798.8 458.75,-1667.6 458.75,-1667.6 458.75,-1661.6 464.75,-1655.6 470.75,-1655.6 470.75,-1655.6 1030.94,-1655.6 1030.94,-1655.6 1036.94,-1655.6 1042.94,-1661.6 1042.94,-1667.6 1042.94,-1667.6 1042.94,-1798.8 1042.94,-1798.8 1042.94,-1804.8 1036.94,-1810.8 1030.94,-1810.8"/>
<text xml:space="preserve" text-anchor="start" x="479.15" y="-1780.6" font-family="Helvetica,sans-Serif" font-weight="bold" font-size="16.00" fill="#fde68a">Role instruction</text>
<text xml:space="preserve" text-anchor="start" x="479.15" y="-1751.8" font-family="Helvetica,sans-Serif" font-size="13.00" fill="#fde68a">You are a friendly and professional medical screening assistant.</text>
<text xml:space="preserve" text-anchor="start" x="479.15" y="-1726.2" font-family="Helvetica,sans-Serif" font-size="13.00" fill="#fde68a">Responses are converted to audio, so keep them concise and avoid special characters.</text>
<text xml:space="preserve" text-anchor="start" x="479.15" y="-1700.6" font-family="Helvetica,sans-Serif" font-size="13.00" fill="#fde68a">Speak clearly and warmly to help patients feel comfortable.</text>
<text xml:space="preserve" text-anchor="start" x="479.15" y="-1675" font-family="Helvetica,sans-Serif" font-size="13.00" fill="#fde68a">Do not start sentences with short bursts like sure! or absolutely!, since they can sound choppy.</text>
</g>
</g>
</svg>
