<?xml version="1.0" encoding="UTF-8" standalone="no"?>
<!DOCTYPE svg PUBLIC "-//W3C//DTD SVG 1.1//EN"
 "http://www.w3.org/Graphics/SVG/1.1/DTD/svg11.dtd">
<!-- Generated by graphviz version 14.1.3 (20260303.0454)
 -->
<!-- Title: HealthcareFlow Pages: 1 -->
<svg width="1294pt" height="1929pt"
 viewBox="0.00 0.00 1294.00 1929.00" xmlns="http://www.w3.org/2000/svg" xmlns:xlink="http://www.w3.org/1999/xlink">
<g id="graph0" class="graph" transform="scale(1 1) rotate(0) translate(57.6 1871.85)">
<title>HealthcareFlow</title>
<polygon fill="#0a0d10" stroke="none" points="-57.6,57.6 -57.6,-1871.85 1236.15,-1871.85 1236.15,57.6 -57.6,57.6"/>
<!-- intro -->
<g id="node1" class="node">
<title>intro</title>
<path fill="#1f2937" stroke="#475569" d="M358.8,-1814.25C358.8,-1814.25 27,-1814.25 27,-1814.25 21,-1814.25 15,-1808.25 15,-1802.25 15,-1802.25 15,-1649.4 15,-1649.4 15,-1643.4 21,-1637.4 27,-1637.4 27,-1637.4 358.8,-1637.4 358.8,-1637.4 364.8,-1637.4 370.8,-1643.4 370.8,-1649.4 370.8,-1649.4 370.8,-1802.25 370.8,-1802.25 370.8,-1808.25 364.8,-1814.25 358.8,-1814.25"/>
<text xml:space="preserve" text-anchor="start" x="175.28" y="-1783.25" font-family="Helvetica,sans-Serif" font-weight="bold" font-size="16.00" fill="#e5e7eb">intro</text>
<text xml:space="preserve" text-anchor="start" x="192.53" y="-1767.95" font-family="Helvetica,sans-Serif" font-size="3.00" fill="#e5e7eb"> </text>
<text xml:space="preserve" text-anchor="start" x="35.4" y="-1747.75" font-family="Helvetica,sans-Serif" font-weight="bold" font-size="11.00" fill="#94a3b8">Task message</text>
<text xml:space="preserve" text-anchor="start" x="35.4" y="-1725.45" font-family="Helvetica,sans-Serif" font-size="12.00" fill="#e5e7eb">Greet the patient warmly and introduce yourself</text>
<text xml:space="preserve" text-anchor="start" x="35.4" y="-1702.7" font-family="Helvetica,sans-Serif" font-size="12.00" fill="#e5e7eb">as a medical screening assistant.</text>
<text xml:space="preserve" text-anchor="start" x="35.4" y="-1679.95" font-family="Helvetica,sans-Serif" font-size="12.00" fill="#e5e7eb">Explain that you&#39;ll help with a brief screening questionnaire.</text>
<text xml:space="preserve" text-anchor="start" x="35.4" y="-1657.2" font-family="Helvetica,sans-Serif" font-size="12.00" fill="#e5e7eb">After consent, use the transition tool to move to data intake.</text>
</g>
<!-- t_intro_to_intake -->
<g id="node6" class="node">
<title>t_intro_to_intake</title>
<path fill="#3f2a1d" stroke="#c2410c" stroke-dasharray="5,2" d="M262.43,-1509.9C262.43,-1509.9 123.38,-1509.9 123.38,-1509.9 117.38,-1509.9 111.38,-1503.9 111.38,-1497.9 111.38,-1497.9 111.38,-1485.9 111.38,-1485.9 111.38,-1479.9 117.38,-1473.9 123.38,-1473.9 123.38,-1473.9 262.43,-1473.9 262.43,-1473.9 268.43,-1473.9 274.43,-1479.9 274.43,-1485.9 274.43,-1485.9 274.43,-1497.9 274.43,-1497.9 274.43,-1503.9 268.43,-1509.9 262.43,-1509.9"/>
<text xml:space="preserve" text-anchor="middle" x="192.9" y="-1486.87" font-family="Helvetica,sans-Serif" font-size="12.00" fill="#fed7aa">transition_to_data_intake</text>
</g>
<!-- intro&#45;&gt;t_intro_to_intake -->
<g id="edge1" class="edge">
<title>intro&#45;&gt;t_intro_to_intake</title>
<path fill="none" stroke="#9ca3af" d="M192.9,-1637.14C192.9,-1596.29 192.9,-1550.44 192.9,-1521.63"/>
<polygon fill="#9ca3af" stroke="#9ca3af" points="196.4,-1521.9 192.9,-1511.9 189.4,-1521.9 196.4,-1521.9"/>
<text xml:space="preserve" text-anchor="middle" x="291.9" y="-1575" font-family="Helvetica,sans-Serif" font-size="12.00" fill="#e5e7eb"> &#160;Use this function to transition to</text>
<text xml:space="preserve" text-anchor="middle" x="291.9" y="-1562.25" font-family="Helvetica,sans-Serif" font-size="12.00" fill="#e5e7eb"> &#160;the data_intake phase after consent.</text>
</g>
<!-- data_intake -->
<g id="node2" class="node">
<title>data_intake</title>
<path fill="#1f2937" stroke="#475569" d="M373.8,-1370.9C373.8,-1370.9 12,-1370.9 12,-1370.9 6,-1370.9 0,-1364.9 0,-1358.9 0,-1358.9 0,-1146.8 0,-1146.8 0,-1140.8 6,-1134.8 12,-1134.8 12,-1134.8 373.8,-1134.8 373.8,-1134.8 379.8,-1134.8 385.8,-1140.8 385.8,-1146.8 385.8,-1146.8 385.8,-1358.9 385.8,-1358.9 385.8,-1364.9 379.8,-1370.9 373.8,-1370.9"/>
<text xml:space="preserve" text-anchor="start" x="148.65" y="-1339.9" font-family="Helvetica,sans-Serif" font-weight="bold" font-size="16.00" fill="#e5e7eb">data_intake</text>
<text xml:space="preserve" text-anchor="start" x="192.53" y="-1324.6" font-family="Helvetica,sans-Serif" font-size="3.00" fill="#e5e7eb"> </text>
<text xml:space="preserve" text-anchor="start" x="20.4" y="-1304.4" font-family="Helvetica,sans-Serif" font-weight="bold" font-size="11.00" fill="#94a3b8">Task message</text>
<text xml:space="preserve" text-anchor="start" x="20.4" y="-1282.1" font-family="Helvetica,sans-Serif" font-size="12.00" fill="#e5e7eb">Collect full name, age, primary reason for visit, and symptoms.</text>
<text xml:space="preserve" text-anchor="start" x="20.4" y="-1259.35" font-family="Helvetica,sans-Serif" font-size="12.00" fill="#e5e7eb">Ask one question at a time and keep the tone conversational.</text>
<text xml:space="preserve" text-anchor="start" x="20.4" y="-1236.6" font-family="Helvetica,sans-Serif" font-size="12.00" fill="#e5e7eb">If the patient shows something on camera, call the vision tool.</text>
<text xml:space="preserve" text-anchor="start" x="20.4" y="-1213.85" font-family="Helvetica,sans-Serif" font-size="12.00" fill="#e5e7eb">When enough info is gathered, transition to appointment booking.</text>
<text xml:space="preserve" text-anchor="start" x="192.53" y="-1197.85" font-family="Helvetica,sans-Serif" font-size="3.00" fill="#e5e7eb"> </text>
<text xml:space="preserve" text-anchor="start" x="20.4" y="-1176.7" font-family="Helvetica,sans-Serif" font-weight="bold" font-size="11.00" fill="#94a3b8">pre_actions:</text>
<text xml:space="preserve" text-anchor="start" x="85.65" y="-1176.7" font-family="Helvetica,sans-Serif" font-size="12.00" fill="#e5e7eb"> </text>
<text xml:space="preserve" text-anchor="start" x="88.65" y="-1176.7" font-family="Helvetica,sans-Serif" font-style="italic" font-size="11.00" fill="#0e7490">Patient Intake Pre Action</text>
<text xml:space="preserve" text-anchor="start" x="20.4" y="-1153.95" font-family="Helvetica,sans-Serif" font-weight="bold" font-size="11.00" fill="#94a3b8">post_actions:</text>
<text xml:space="preserve" text-anchor="start" x="91.65" y="-1153.95" font-family="Helvetica,sans-Serif" font-size="12.00" fill="#e5e7eb"> </text>
<text xml:space="preserve" text-anchor="start" x="94.65" y="-1153.95" font-family="Helvetica,sans-Serif" font-style="italic" font-size="11.00" fill="#9333ea">Patient Intake Post Action</text>
</g>
<!-- t_intake_to_booking -->
<g id="node7" class="node">
<title>t_intake_to_booking</title>
<path fill="#3f2a1d" stroke="#c2410c" stroke-dasharray="5,2" d="M289.05,-1007.3C289.05,-1007.3 96.75,-1007.3 96.75,-1007.3 90.75,-1007.3 84.75,-1001.3 84.75,-995.3 84.75,-995.3 84.75,-983.3 84.75,-983.3 84.75,-977.3 90.75,-971.3 96.75,-971.3 96.75,-971.3 289.05,-971.3 289.05,-971.3 295.05,-971.3 301.05,-977.3 301.05,-983.3 301.05,-983.3 301.05,-995.3 301.05,-995.3 301.05,-1001.3 295.05,-1007.3 289.05,-1007.3"/>
<text xml:space="preserve" text-anchor="middle" x="192.9" y="-984.27" font-family="Helvetica,sans-Serif" font-size="12.00" fill="#fed7aa">transition_to_appointment_booking</text>
</g>
<!-- data_intake&#45;&gt;t_intake_to_booking -->
<g id="edge3" class="edge">
<title>data_intake&#45;&gt;t_intake_to_booking</title>
<path fill="none" stroke="#9ca3af" d="M192.9,-1134.46C192.9,-1091.64 192.9,-1046.88 192.9,-1018.82"/>
<polygon fill="#9ca3af" stroke="#9ca3af" points="196.4,-1019.03 192.9,-1009.03 189.4,-1019.03 196.4,-1019.03"/>
<text xml:space="preserve" text-anchor="middle" x="272.77" y="-1072.4" font-family="Helvetica,sans-Serif" font-size="12.00" fill="#e5e7eb"> &#160;Transition to the appointment</text>
<text xml:space="preserve" text-anchor="middle" x="272.77" y="-1059.65" font-family="Helvetica,sans-Serif" font-size="12.00" fill="#e5e7eb"> &#160;booking phase.</text>
</g>
<!-- intake_vision -->
<g id="node10" class="node">
<title>intake_vision</title>
<path fill="#0f2a32" stroke="#0e7490" stroke-dasharray="5,2" d="M756.3,-1276.4C756.3,-1276.4 661.5,-1276.4 661.5,-1276.4 655.5,-1276.4 649.5,-1270.4 649.5,-1264.4 649.5,-1264.4 649.5,-1241.3 649.5,-1241.3 649.5,-1235.3 655.5,-1229.3 661.5,-1229.3 661.5,-1229.3 756.3,-1229.3 756.3,-1229.3 762.3,-1229.3 768.3,-1235.3 768.3,-1241.3 768.3,-1241.3 768.3,-1264.4 768.3,-1264.4 768.3,-1270.4 762.3,-1276.4 756.3,-1276.4"/>
<text xml:space="preserve" text-anchor="middle" x="708.9" y="-1254.2" font-family="Helvetica,sans-Serif" font-size="12.00" fill="#67e8f9">VIEW_CAMERA</text>
<text xml:space="preserve" text-anchor="middle" x="708.9" y="-1241.45" font-family="Helvetica,sans-Serif" font-size="12.00" fill="#67e8f9">(vision)</text>
</g>
<!-- data_intake&#45;&gt;intake_vision -->
<g id="edge9" class="edge">
<title>data_intake&#45;&gt;intake_vision</title>
<path fill="none" stroke="#9ca3af" stroke-dasharray="5,2" d="M386.14,-1252.85C479.56,-1252.85 585.08,-1252.85 649.29,-1252.85"/>
<text xml:space="preserve" text-anchor="middle" x="517.65" y="-1269.95" font-family="Helvetica,sans-Serif" font-size="12.00" fill="#e5e7eb"> &#160;Use this tool when the user asks</text>
<text xml:space="preserve" text-anchor="middle" x="517.65" y="-1257.2" font-family="Helvetica,sans-Serif" font-size="12.00" fill="#e5e7eb"> &#160;you to look at the screen.</text>
</g>
<!-- appointment_booking -->
<g id="node3" class="node">
<title>appointment_booking</title>
<path fill="#1f2937" stroke="#475569" d="M338.93,-868.3C338.93,-868.3 46.88,-868.3 46.88,-868.3 40.88,-868.3 34.88,-862.3 34.88,-856.3 34.88,-856.3 34.88,-703.45 34.88,-703.45 34.88,-697.45 40.88,-691.45 46.88,-691.45 46.88,-691.45 338.93,-691.45 338.93,-691.45 344.93,-691.45 350.93,-697.45 350.93,-703.45 350.93,-703.45 350.93,-856.3 350.93,-856.3 350.93,-862.3 344.93,-868.3 338.93,-868.3"/>
<text xml:space="preserve" text-anchor="start" x="109.28" y="-837.3" font-family="Helvetica,sans-Serif" font-weight="bold" font-size="16.00" fill="#e5e7eb">appointment_booking</text>
<text xml:space="preserve" text-anchor="start" x="192.53" y="-822" font-family="Helvetica,sans-Serif" font-size="3.00" fill="#e5e7eb"> </text>
<text xml:space="preserve" text-anchor="start" x="55.28" y="-801.8" font-family="Helvetica,sans-Serif" font-weight="bold" font-size="11.00" fill="#94a3b8">Task message</text>
<text xml:space="preserve" text-anchor="start" x="55.28" y="-779.5" font-family="Helvetica,sans-Serif" font-size="12.00" fill="#e5e7eb">Help the patient schedule an appointment.</text>
<text xml:space="preserve" text-anchor="start" x="55.28" y="-756.75" font-family="Helvetica,sans-Serif" font-size="12.00" fill="#e5e7eb">Ask for preferred date, time, and in&#45;person vs virtual.</text>
<text xml:space="preserve" text-anchor="start" x="55.28" y="-734" font-family="Helvetica,sans-Serif" font-size="12.00" fill="#e5e7eb">After collecting details, use the HTTP booking tool.</text>
<text xml:space="preserve" text-anchor="start" x="55.28" y="-710.6" font-family="Helvetica,sans-Serif" font-size="12.00" fill="#e5e7eb">Note: today is </text>
<text xml:space="preserve" text-anchor="start" x="131.03" y="-710.6" font-family="Helvetica,sans-Serif" font-weight="bold" font-size="12.00" fill="#7c3aed">{{runtime.today}}</text>
<text xml:space="preserve" text-anchor="start" x="227.78" y="-710.6" font-family="Helvetica,sans-Serif" font-size="12.00" fill="#e5e7eb">.</text>
</g>
<!-- booking_http -->
<g id="node9" class="node">
<title>booking_http</title>
<path fill="#10261a" stroke="#15803d" stroke-dasharray="5,2" d="M665.8,-803.42C665.8,-803.42 562,-803.42 562,-803.42 556,-803.42 550,-797.42 550,-791.42 550,-791.42 550,-768.33 550,-768.33 550,-762.33 556,-756.33 562,-756.33 562,-756.33 665.8,-756.33 665.8,-756.33 671.8,-756.33 677.8,-762.33 677.8,-768.33 677.8,-768.33 677.8,-791.42 677.8,-791.42 677.8,-797.42 671.8,-803.42 665.8,-803.42"/>
<text xml:space="preserve" text-anchor="middle" x="613.9" y="-781.23" font-family="Helvetica,sans-Serif" font-size="12.00" fill="#86efac">book_appointment</text>
<text xml:space="preserve" text-anchor="middle" x="613.9" y="-768.48" font-family="Helvetica,sans-Serif" font-size="12.00" fill="#86efac">(http)</text>
</g>
<!-- appointment_booking&#45;&gt;booking_http -->
<g id="edge5" class="edge">
<title>appointment_booking&#45;&gt;booking_http</title>
<path fill="none" stroke="#9ca3af" stroke-dasharray="5,2" d="M351.16,-779.88C420.07,-779.88 496.96,-779.88 549.66,-779.88"/>
<text xml:space="preserve" text-anchor="middle" x="450.46" y="-796.98" font-family="Helvetica,sans-Serif" font-size="12.00" fill="#e5e7eb"> &#160;Call this tool to book</text>
<text xml:space="preserve" text-anchor="middle" x="450.46" y="-784.23" font-family="Helvetica,sans-Serif" font-size="12.00" fill="#e5e7eb"> &#160;the appointment.</text>
</g>
<!-- qa -->
<g id="node4" class="node">
<title>qa</title>
<path fill="#1f2937" stroke="#475569" d="M811.67,-588.45C811.67,-588.45 416.12,-588.45 416.12,-588.45 410.12,-588.45 404.12,-582.45 404.12,-576.45 404.12,-576.45 404.12,-446.35 404.12,-446.35 404.12,-440.35 410.12,-434.35 416.12,-434.35 416.12,-434.35 811.67,-434.35 811.67,-434.35 817.67,-434.35 823.67,-440.35 823.67,-446.35 823.67,-446.35 823.67,-576.45 823.67,-576.45 823.67,-582.45 817.67,-588.45 811.67,-588.45"/>
<text xml:space="preserve" text-anchor="start" x="604.52" y="-557.45" font-family="Helvetica,sans-Serif" font-weight="bold" font-size="16.00" fill="#e5e7eb">qa</text>
<text xml:space="preserve" text-anchor="start" x="613.52" y="-542.15" font-family="Helvetica,sans-Serif" font-size="3.00" fill="#e5e7eb"> </text>
<text xml:space="preserve" text-anchor="start" x="424.52" y="-521.95" font-family="Helvetica,sans-Serif" font-weight="bold" font-size="11.00" fill="#94a3b8">Task message</text>
<text xml:space="preserve" text-anchor="start" x="424.52" y="-499.65" font-family="Helvetica,sans-Serif" font-size="12.00" fill="#e5e7eb">Answer patient questions about screening, clinic details, or other topics.</text>
<text xml:space="preserve" text-anchor="start" x="424.52" y="-476.9" font-family="Helvetica,sans-Serif" font-size="12.00" fill="#e5e7eb">Be helpful, empathetic, concise, and use RAG for clinic questions.</text>
<text xml:space="preserve" text-anchor="start" x="424.52" y="-454.15" font-family="Helvetica,sans-Serif" font-size="12.00" fill="#e5e7eb">When the patient is ready to conclude, use the transition tool.</text>
</g>
<!-- t_qa_to_end -->
<g id="node8" class="node">
<title>t_qa_to_end</title>
<path fill="#3f2a1d" stroke="#c2410c" stroke-dasharray="5,2" d="M692.05,-306.85C692.05,-306.85 535.75,-306.85 535.75,-306.85 529.75,-306.85 523.75,-300.85 523.75,-294.85 523.75,-294.85 523.75,-282.85 523.75,-282.85 523.75,-276.85 529.75,-270.85 535.75,-270.85 535.75,-270.85 692.05,-270.85 692.05,-270.85 698.05,-270.85 704.05,-276.85 704.05,-282.85 704.05,-282.85 704.05,-294.85 704.05,-294.85 704.05,-300.85 698.05,-306.85 692.05,-306.85"/>
<text xml:space="preserve" text-anchor="middle" x="613.9" y="-283.83" font-family="Helvetica,sans-Serif" font-size="12.00" fill="#fed7aa">transition_to_end_screening</text>
</g>
<!-- qa&#45;&gt;t_qa_to_end -->
<g id="edge7" class="edge">
<title>qa&#45;&gt;t_qa_to_end</title>
<path fill="none" stroke="#9ca3af" d="M613.9,-433.88C613.9,-394.04 613.9,-347.69 613.9,-318.56"/>
<polygon fill="#9ca3af" stroke="#9ca3af" points="617.4,-318.71 613.9,-308.71 610.4,-318.71 617.4,-318.71"/>
<text xml:space="preserve" text-anchor="middle" x="677.27" y="-371.95" font-family="Helvetica,sans-Serif" font-size="12.00" fill="#e5e7eb"> &#160;Transition to the end of</text>
<text xml:space="preserve" text-anchor="middle" x="677.27" y="-359.2" font-family="Helvetica,sans-Serif" font-size="12.00" fill="#e5e7eb"> &#160;the screening session.</text>
</g>
<!-- qa_rag -->
<g id="node11" class="node">
<title>qa_rag</title>
<path fill="#221638" stroke="#7c3aed" stroke-dasharray="5,2" d="M1166.55,-534.95C1166.55,-534.95 1073.25,-534.95 1073.25,-534.95 1067.25,-534.95 1061.25,-528.95 1061.25,-522.95 1061.25,-522.95 1061.25,-499.85 1061.25,-499.85 1061.25,-493.85 1067.25,-487.85 1073.25,-487.85 1073.25,-487.85 1166.55,-487.85 1166.55,-487.85 1172.55,-487.85 1178.55,-493.85 1178.55,-499.85 1178.55,-499.85 1178.55,-522.95 1178.55,-522.95 1178.55,-528.95 1172.55,-534.95 1166.55,-534.95"/>
<text xml:space="preserve" text-anchor="middle" x="1119.9" y="-512.75" font-family="Helvetica,sans-Serif" font-size="12.00" fill="#c4b5fd">about_our_clinic</text>
<text xml:space="preserve" text-anchor="middle" x="1119.9" y="-500" font-family="Helvetica,sans-Serif" font-size="12.00" fill="#c4b5fd">(rag)</text>
</g>
<!-- qa&#45;&gt;qa_rag -->
<g id="edge10" class="edge">
<title>qa&#45;&gt;qa_rag</title>
<path fill="none" stroke="#9ca3af" stroke-dasharray="5,2" d="M824.09,-511.4C909.9,-511.4 1002.47,-511.4 1060.76,-511.4"/>
<text xml:space="preserve" text-anchor="middle" x="942.46" y="-528.5" font-family="Helvetica,sans-Serif" font-size="12.00" fill="#e5e7eb"> &#160;a RAG tool with information</text>
<text xml:space="preserve" text-anchor="middle" x="942.46" y="-515.75" font-family="Helvetica,sans-Serif" font-size="12.00" fill="#e5e7eb"> &#160;about our clinic</text>
</g>
<!-- end -->
<g id="node5" class="node">
<title>end</title>
<path fill="#1f2937" stroke="#475569" d="M757.67,-167.85C757.67,-167.85 470.12,-167.85 470.12,-167.85 464.12,-167.85 458.12,-161.85 458.12,-155.85 458.12,-155.85 458.12,-12 458.12,-12 458.12,-6 464.12,0 470.12,0 470.12,0 757.67,0 757.67,0 763.67,0 769.67,-6 769.67,-12 769.67,-12 769.67,-155.85 769.67,-155.85 769.67,-161.85 763.67,-167.85 757.67,-167.85"/>
<text xml:space="preserve" text-anchor="start" x="599.65" y="-136.85" font-family="Helvetica,sans-Serif" font-weight="bold" font-size="16.00" fill="#e5e7eb">end</text>
<text xml:space="preserve" text-anchor="start" x="613.52" y="-121.55" font-family="Helvetica,sans-Serif" font-size="3.00" fill="#e5e7eb"> </text>
<text xml:space="preserve" text-anchor="start" x="478.52" y="-101.35" font-family="Helvetica,sans-Serif" font-weight="bold" font-size="11.00" fill="#6b7280">Task message</text>
<text xml:space="preserve" text-anchor="start" x="478.52" y="-79.05" font-family="Helvetica,sans-Serif" font-size="12.00" fill="#e5e7eb">Thank the patient for completing the screening.</text>
<text xml:space="preserve" text-anchor="start" x="478.52" y="-56.3" font-family="Helvetica,sans-Serif" font-size="12.00" fill="#e5e7eb">Provide brief next steps, then end the conversation.</text>
<text xml:space="preserve" text-anchor="start" x="613.52" y="-40.3" font-family="Helvetica,sans-Serif" font-size="3.00" fill="#e5e7eb"> </text>
<text xml:space="preserve" text-anchor="start" x="478.52" y="-19.15" font-family="Helvetica,sans-Serif" font-weight="bold" font-size="11.00" fill="#94a3b8">post_actions:</text>
<text xml:space="preserve" text-anchor="start" x="549.77" y="-19.15" font-family="Helvetica,sans-Serif" font-size="12.00" fill="#e5e7eb"> </text>
<text xml:space="preserve" text-anchor="start" x="552.77" y="-19.15" font-family="Helvetica,sans-Serif" font-style="italic" font-size="11.00" fill="#b45309">END_CONVERSATION</text>
</g>
<!-- t_intro_to_intake&#45;&gt;data_intake -->
<g id="edge2" class="edge">
<title>t_intro_to_intake&#45;&gt;data_intake</title>
<path fill="none" stroke="#9ca3af" d="M192.9,-1473.47C192.9,-1453.41 192.9,-1418.57 192.9,-1382.47"/>
<polygon fill="#9ca3af" stroke="#9ca3af" points="196.4,-1382.75 192.9,-1372.75 189.4,-1382.75 196.4,-1382.75"/>
</g>
<!-- t_intake_to_booking&#45;&gt;appointment_booking -->
<g id="edge4" class="edge">
<title>t_intake_to_booking&#45;&gt;appointment_booking</title>
<path fill="none" stroke="#9ca3af" d="M192.9,-970.97C192.9,-950.5 192.9,-914.79 192.9,-879.8"/>
<polygon fill="#9ca3af" stroke="#9ca3af" points="196.4,-880 192.9,-870 189.4,-880 196.4,-880"/>
</g>
<!-- t_qa_to_end&#45;&gt;end -->
<g id="edge8" class="edge">
<title>t_qa_to_end&#45;&gt;end</title>
<path fill="none" stroke="#9ca3af" d="M613.9,-270.55C613.9,-249.97 613.9,-213.99 613.9,-179.16"/>
<polygon fill="#9ca3af" stroke="#9ca3af" points="617.4,-179.42 613.9,-169.42 610.4,-179.42 617.4,-179.42"/>
</g>
<!-- booking_http&#45;&gt;qa -->
<g id="edge6" class="edge">
<title>booking_http&#45;&gt;qa</title>
<path fill="none" stroke="#9ca3af" d="M613.9,-756.16C613.9,-721.83 613.9,-654.92 613.9,-599.87"/>
<polygon fill="#9ca3af" stroke="#9ca3af" points="617.4,-600.19 613.9,-590.19 610.4,-600.19 617.4,-600.19"/>
</g>
<!-- intro_role_message -->
<g id="node12" class="node">
<title>intro_role_message</title>
<path fill="#3a2a14" stroke="#b45309" stroke-dasharray="1,5" d="M1048.55,-1797.87C1048.55,-1797.87 469.25,-1797.87 469.25,-1797.87 463.25,-1797.87 457.25,-1791.87 457.25,-1785.87 457.25,-1785.87 457.25,-1665.77 457.25,-1665.77 457.25,-1659.77 463.25,-1653.77 469.25,-1653.77 469.25,-1653.77 1048.55,-1653.77 1048.55,-1653.77 1054.55,-1653.77 1060.55,-1659.77 1060.55,-1665.77 1060.55,-1665.77 1060.55,-1785.87 1060.55,-1785.87 1060.55,-1791.87 1054.55,-1797.87 1048.55,-1797.87"/>
<text xml:space="preserve" text-anchor="start" x="477.65" y="-1766.87" font-family="Helvetica,sans-Serif" font-weight="bold" font-size="16.00" fill="#fde68a">Role message</text>
<text xml:space="preserve" text-anchor="start" x="477.65" y="-1744.07" font-family="Helvetica,sans-Serif" font-size="13.00" fill="#fde68a">You are a friendly and professional medical screening assistant.</text>
<text xml:space="preserve" text-anchor="start" x="477.65" y="-1720.57" font-family="Helvetica,sans-Serif" font-size="13.00" fill="#fde68a">Responses are converted to audio, so keep them concise and avoid special characters.</text>
<text xml:space="preserve" text-anchor="start" x="477.65" y="-1697.07" font-family="Helvetica,sans-Serif" font-size="13.00" fill="#fde68a">Speak clearly and warmly to help patients feel comfortable.</text>
<text xml:space="preserve" text-anchor="start" x="477.65" y="-1673.57" font-family="Helvetica,sans-Serif" font-size="13.00" fill="#fde68a">Do not start sentences with short bursts like sure! or absolutely!, since they can sound choppy.</text>
</g>
</g>
</svg>
