<?xml version="1.0" encoding="UTF-8" standalone="no"?>
<!DOCTYPE svg PUBLIC "-//W3C//DTD SVG 1.1//EN"
 "http://www.w3.org/Graphics/SVG/1.1/DTD/svg11.dtd">
<!-- Generated by graphviz version 14.1.3 (20260303.0454)
 -->
<!-- Title: AkapuluPipeline Pages: 1 -->
<svg width="448pt" height="377pt"
 viewBox="0.00 0.00 448.00 377.00" xmlns="http://www.w3.org/2000/svg" xmlns:xlink="http://www.w3.org/1999/xlink">
<g id="graph0" class="graph" transform="scale(1 1) rotate(0) translate(4 372.75)">
<title>AkapuluPipeline</title>
<polygon fill="white" stroke="none" points="-4,4 -4,-372.75 443.75,-372.75 443.75,4 -4,4"/>
<text xml:space="preserve" text-anchor="middle" x="219.88" y="-353.35" font-family="Helvetica,sans-Serif" font-size="12.00">Akapulu Conversation Pipeline</text>
<g id="clust1" class="cluster">
<title>cluster_akapulu</title>
<path fill="#f0f9ff" stroke="#0369a1" stroke-width="1.6" d="M327,-51C327,-51 419.75,-51 419.75,-51 425.75,-51 431.75,-57 431.75,-63 431.75,-63 431.75,-328 431.75,-328 431.75,-334 425.75,-340 419.75,-340 419.75,-340 327,-340 327,-340 321,-340 315,-334 315,-328 315,-328 315,-63 315,-63 315,-57 321,-51 327,-51"/>
<text xml:space="preserve" text-anchor="middle" x="373.38" y="-324.6" font-family="Helvetica,sans-Serif" font-size="12.00">Akapulu</text>
</g>
<!-- user -->
<g id="node1" class="node">
<title>user</title>
<path fill="#ede9fe" stroke="#7c3aed" d="M117,-311C117,-311 87,-311 87,-311 81,-311 75,-305 75,-299 75,-299 75,-287 75,-287 75,-281 81,-275 87,-275 87,-275 117,-275 117,-275 123,-275 129,-281 129,-287 129,-287 129,-299 129,-299 129,-305 123,-311 117,-311"/>
<text xml:space="preserve" text-anchor="middle" x="102" y="-288.55" font-family="Helvetica,sans-Serif" font-size="11.00">User</text>
</g>
<!-- stt -->
<g id="node3" class="node">
<title>stt</title>
<polygon fill="#e0f2fe" stroke="#0369a1" points="417.75,-311 329,-311 329,-275 417.75,-275 417.75,-311"/>
<text xml:space="preserve" text-anchor="middle" x="373.38" y="-288.55" font-family="Helvetica,sans-Serif" font-size="11.00">Speech&#45;to&#45;Text</text>
</g>
<!-- user&#45;&gt;stt -->
<g id="edge7" class="edge">
<title>user:e&#45;&gt;stt:w</title>
<path fill="none" stroke="#334155" d="M130,-293C214.91,-293 238.37,-293 318.96,-293"/>
<polygon fill="#334155" stroke="#334155" points="318.49,-295.8 326.49,-293 318.49,-290.2 318.49,-295.8"/>
<text xml:space="preserve" text-anchor="middle" x="263.5" y="-294.75" font-family="Helvetica,sans-Serif" font-size="10.00">User input</text>
</g>
<!-- avatar_output_preview -->
<g id="node2" class="node">
<title>avatar_output_preview</title>
<image xlink:href="avatar_output.png" width="204px" height="205.511px" preserveAspectRatio="xMinYMin meet" x="0" y="-205.756"/>
</g>
<!-- llm -->
<g id="node4" class="node">
<title>llm</title>
<polygon fill="#e0f2fe" stroke="#0369a1" points="400.38,-239 346.38,-239 346.38,-203 400.38,-203 400.38,-239"/>
<text xml:space="preserve" text-anchor="middle" x="373.38" y="-216.55" font-family="Helvetica,sans-Serif" font-size="11.00">LLM</text>
</g>
<!-- stt&#45;&gt;llm -->
<g id="edge4" class="edge">
<title>stt&#45;&gt;llm</title>
<path fill="none" stroke="#334155" d="M357.93,-274.53C353.05,-265.63 351.89,-256.72 354.44,-247.82"/>
<polygon fill="#334155" stroke="#334155" points="356.93,-249.14 357.44,-240.68 351.76,-246.97 356.93,-249.14"/>
</g>
<!-- llm&#45;&gt;stt -->
<!-- tts -->
<g id="node5" class="node">
<title>tts</title>
<polygon fill="#e0f2fe" stroke="#0369a1" points="417.75,-167 329,-167 329,-131 417.75,-131 417.75,-167"/>
<text xml:space="preserve" text-anchor="middle" x="373.38" y="-144.55" font-family="Helvetica,sans-Serif" font-size="11.00">Text&#45;to&#45;Speech</text>
</g>
<!-- llm&#45;&gt;tts -->
<g id="edge5" class="edge">
<title>llm&#45;&gt;tts</title>
<path fill="none" stroke="#334155" d="M347.99,-202.53C339.72,-193.35 337.95,-184.17 342.67,-174.99"/>
<polygon fill="#334155" stroke="#334155" points="344.92,-176.66 347.28,-168.51 340.36,-173.41 344.92,-176.66"/>
</g>
<!-- tts&#45;&gt;llm -->
<!-- avatar -->
<g id="node6" class="node">
<title>avatar</title>
<polygon fill="#e0f2fe" stroke="#0369a1" points="423.75,-95 323,-95 323,-59 423.75,-59 423.75,-95"/>
<text xml:space="preserve" text-anchor="middle" x="373.38" y="-72.55" font-family="Helvetica,sans-Serif" font-size="11.00">Avatar Rendering</text>
</g>
<!-- tts&#45;&gt;avatar -->
<g id="edge6" class="edge">
<title>tts&#45;&gt;avatar</title>
<path fill="none" stroke="#334155" d="M344.56,-130.53C334.98,-121.17 333.08,-111.81 338.84,-102.44"/>
<polygon fill="#334155" stroke="#334155" points="340.86,-104.4 343.78,-96.45 336.53,-100.84 340.86,-104.4"/>
</g>
<!-- avatar&#45;&gt;user -->
<g id="edge8" class="edge">
<title>avatar:w&#45;&gt;user:s</title>
<path fill="none" stroke="#334155" d="M322,-77C281.65,-77 235.02,-189.2 204,-215 166.41,-246.27 110.1,-224.93 102.79,-264.57"/>
<polygon fill="#334155" stroke="#334155" points="100.01,-264.29 102.13,-272.49 105.59,-264.75 100.01,-264.29"/>
<text xml:space="preserve" text-anchor="middle" x="263.5" y="-166.42" font-family="Helvetica,sans-Serif" font-size="10.00">Bot output</text>
</g>
<!-- avatar&#45;&gt;avatar_output_preview -->
<g id="edge9" class="edge">
<title>avatar&#45;&gt;avatar_output_preview</title>
<path fill="none" stroke="#64748b" stroke-dasharray="1,5" d="M322.73,-72.9C316.76,-72.53 310.74,-72.21 305,-72 271.85,-70.77 235.97,-74.58 203.77,-79.9"/>
</g>
<!-- avatar&#45;&gt;tts -->
</g>
</svg>
