<?xml version="1.0" encoding="UTF-8" standalone="no"?>
<!DOCTYPE svg PUBLIC "-//W3C//DTD SVG 1.1//EN"
 "http://www.w3.org/Graphics/SVG/1.1/DTD/svg11.dtd">
<!-- Generated by graphviz version 14.1.3 (20260303.0454)
 -->
<!-- Title: AkapuluPipeline Pages: 1 -->
<svg width="495pt" height="580pt"
 viewBox="0.00 0.00 495.00 580.00" xmlns="http://www.w3.org/2000/svg" xmlns:xlink="http://www.w3.org/1999/xlink">
<g id="graph0" class="graph" transform="scale(1 1) rotate(0) translate(57.6 522.6)">
<title>AkapuluPipeline</title>
<polygon fill="#0b0d10" stroke="none" points="-57.6,57.6 -57.6,-522.6 437.88,-522.6 437.88,57.6 -57.6,57.6"/>
<g id="clust1" class="cluster">
<title>cluster_akapulu</title>
<path fill="#1e3a5f" stroke="#0c4a6e" stroke-width="1.6" d="M266.68,-8C266.68,-8 360.28,-8 360.28,-8 366.28,-8 372.28,-14 372.28,-20 372.28,-20 372.28,-445 372.28,-445 372.28,-451 366.28,-457 360.28,-457 360.28,-457 266.68,-457 266.68,-457 260.68,-457 254.68,-451 254.68,-445 254.68,-445 254.68,-20 254.68,-20 254.68,-14 260.68,-8 266.68,-8"/>
<text xml:space="preserve" text-anchor="middle" x="313.48" y="-442.2" font-family="Helvetica,sans-Serif" font-size="12.00" fill="#e2e8f0">Akapulu</text>
</g>
<!-- user -->
<g id="node1" class="node">
<title>user</title>
<path fill="#6d28d9" stroke="#4c1d95" d="M45.6,-441.4C45.6,-441.4 12,-441.4 12,-441.4 6,-441.4 0,-435.4 0,-429.4 0,-429.4 0,-388.6 0,-388.6 0,-382.6 6,-376.6 12,-376.6 12,-376.6 45.6,-376.6 45.6,-376.6 51.6,-376.6 57.6,-382.6 57.6,-388.6 57.6,-388.6 57.6,-429.4 57.6,-429.4 57.6,-435.4 51.6,-441.4 45.6,-441.4"/>
<image xlink:href="user-icon.png" width="57.6px" height="57.6px" preserveAspectRatio="xMinYMin meet" x="1.42109e-14" y="-434.2"/>
<text xml:space="preserve" text-anchor="middle" x="28.8" y="-431.5" font-family="Helvetica,sans-Serif" font-size="11.00" fill="#e2e8f0">User</text>
</g>
<!-- stt -->
<g id="node2" class="node">
<title>stt</title>
<polygon fill="#1e3a8a" stroke="#0b1e5b" points="359.08,-427 267.88,-427 267.88,-391 359.08,-391 359.08,-427"/>
<text xml:space="preserve" text-anchor="middle" x="313.48" y="-405.7" font-family="Helvetica,sans-Serif" font-size="11.00" fill="#e2e8f0">Speech&#45;to&#45;Text</text>
</g>
<!-- user&#45;&gt;stt -->
<g id="edge7" class="edge">
<title>user:e&#45;&gt;stt:w</title>
<path fill="none" stroke="#cbd5e1" d="M57.6,-409C147.43,-409 172.2,-409 257.58,-409"/>
<polygon fill="#cbd5e1" stroke="#cbd5e1" points="257.37,-411.8 265.37,-409 257.37,-406.2 257.37,-411.8"/>
<image xlink:href="user-audio-waves.png" width="18px" height="18px" preserveAspectRatio="xMinYMin meet" x="151.139" y="-452"/>
<text xml:space="preserve" text-anchor="start" x="123.73" y="-416" font-family="Helvetica,sans-Serif" font-size="10.00" fill="#e2e8f0">User input audio</text>
</g>
<!-- llm -->
<g id="node3" class="node">
<title>llm</title>
<polygon fill="#1e3a8a" stroke="#0b1e5b" points="340.48,-304 286.48,-304 286.48,-268 340.48,-268 340.48,-304"/>
<text xml:space="preserve" text-anchor="middle" x="313.48" y="-282.7" font-family="Helvetica,sans-Serif" font-size="11.00" fill="#e2e8f0">LLM</text>
</g>
<!-- stt&#45;&gt;llm -->
<g id="edge4" class="edge">
<title>stt&#45;&gt;llm</title>
<path fill="none" stroke="#cbd5e1" d="M313.48,-390.86C313.48,-370.57 313.48,-337.46 313.48,-313.87"/>
<polygon fill="#cbd5e1" stroke="#cbd5e1" points="316.28,-313.93 313.48,-305.93 310.68,-313.93 316.28,-313.93"/>
<polygon fill="#334155" stroke="none" points="195.27,-325.5 195.27,-369.5 381.69,-369.5 381.69,-325.5 195.27,-325.5"/>
<text xml:space="preserve" text-anchor="start" x="267.09" y="-353.5" font-family="Helvetica,sans-Serif" font-size="10.00" fill="#d1d9e6">User text:</text>
<text xml:space="preserve" text-anchor="start" x="201.27" y="-333.5" font-family="Helvetica,sans-Serif" font-size="10.00" fill="#d1d9e6">&quot;I need to reschedule my appointment.&quot;</text>
<polygon fill="none" stroke="#1f2937" points="195.27,-325.5 195.27,-369.5 381.69,-369.5 381.69,-325.5 195.27,-325.5"/>
</g>
<!-- llm&#45;&gt;stt -->
<!-- tts -->
<g id="node4" class="node">
<title>tts</title>
<polygon fill="#1e3a8a" stroke="#0b1e5b" points="359.08,-181 267.88,-181 267.88,-145 359.08,-145 359.08,-181"/>
<text xml:space="preserve" text-anchor="middle" x="313.48" y="-159.7" font-family="Helvetica,sans-Serif" font-size="11.00" fill="#e2e8f0">Text&#45;to&#45;Speech</text>
</g>
<!-- llm&#45;&gt;tts -->
<g id="edge5" class="edge">
<title>llm&#45;&gt;tts</title>
<path fill="none" stroke="#cbd5e1" d="M313.48,-267.86C313.48,-247.57 313.48,-214.46 313.48,-190.87"/>
<polygon fill="#cbd5e1" stroke="#cbd5e1" points="316.28,-190.93 313.48,-182.93 310.68,-190.93 316.28,-190.93"/>
<polygon fill="#334155" stroke="none" points="168.6,-202.5 168.6,-246.5 408.36,-246.5 408.36,-202.5 168.6,-202.5"/>
<text xml:space="preserve" text-anchor="start" x="255.41" y="-230.5" font-family="Helvetica,sans-Serif" font-size="10.00" fill="#d1d9e6">LLM response:</text>
<text xml:space="preserve" text-anchor="start" x="174.6" y="-210.5" font-family="Helvetica,sans-Serif" font-size="10.00" fill="#d1d9e6">&quot;I can help with that. What day works best for you?&quot;</text>
<polygon fill="none" stroke="#1f2937" points="168.6,-202.5 168.6,-246.5 408.36,-246.5 408.36,-202.5 168.6,-202.5"/>
</g>
<!-- tts&#45;&gt;llm -->
<!-- avatar -->
<g id="node5" class="node">
<title>avatar</title>
<polygon fill="#1e3a8a" stroke="#0b1e5b" points="364.28,-52 262.68,-52 262.68,-16 364.28,-16 364.28,-52"/>
<text xml:space="preserve" text-anchor="middle" x="313.48" y="-30.7" font-family="Helvetica,sans-Serif" font-size="11.00" fill="#e2e8f0">Avatar Rendering</text>
</g>
<!-- tts&#45;&gt;avatar -->
<g id="edge6" class="edge">
<title>tts&#45;&gt;avatar</title>
<path fill="none" stroke="#cbd5e1" d="M313.48,-144.55C313.48,-122.92 313.48,-86.84 313.48,-61.81"/>
<polygon fill="#cbd5e1" stroke="#cbd5e1" points="316.28,-62 313.48,-54 310.68,-62 316.28,-62"/>
<polygon fill="#334155" stroke="none" points="258.35,-73.5 258.35,-123.5 312.61,-123.5 312.61,-73.5 258.35,-73.5"/>
<image xlink:href="bot-audiowaves.png" width="18px" height="18px" preserveAspectRatio="xMinYMin meet" x="276.48" y="-117.5"/>
<text xml:space="preserve" text-anchor="start" x="264.35" y="-81.5" font-family="Helvetica,sans-Serif" font-size="10.00" fill="#d1d9e6">Bot audio</text>
<polygon fill="none" stroke="#1f2937" points="258.35,-73.5 258.35,-123.5 312.61,-123.5 312.61,-73.5 258.35,-73.5"/>
</g>
<!-- avatar&#45;&gt;user -->
<g id="edge8" class="edge">
<title>avatar:w&#45;&gt;user:s</title>
<path fill="none" stroke="#cbd5e1" d="M261.68,-34C81.07,-34 30.52,-186.5 28.84,-366.2"/>
<polygon fill="#cbd5e1" stroke="#cbd5e1" points="26.04,-366.07 28.81,-374.09 31.64,-366.1 26.04,-366.07"/>
<image xlink:href="avatar_output_thumb.png" width="41.25px" height="42px" preserveAspectRatio="xMinYMin meet" x="111.125" y="-165.287"/>
<text xml:space="preserve" text-anchor="start" x="167.55" y="-138.69" font-family="Helvetica,sans-Serif" font-size="14.00" fill="#e2e8f0">+</text>
<image xlink:href="bot-audiowaves.png" width="25.3008px" height="25.3008px" preserveAspectRatio="xMinYMin meet" x="187.377" y="-156.937"/>
<text xml:space="preserve" text-anchor="start" x="107.6" y="-105.29" font-family="Helvetica,sans-Serif" font-size="10.00" fill="#e2e8f0">Bot output video / audio</text>
</g>
<!-- avatar&#45;&gt;tts -->
</g>
</svg>
