<?xml version="1.0" encoding="UTF-8" standalone="no"?>
<!DOCTYPE svg PUBLIC "-//W3C//DTD SVG 1.1//EN"
 "http://www.w3.org/Graphics/SVG/1.1/DTD/svg11.dtd">
<!-- Generated by graphviz version 14.1.3 (20260303.0454)
 -->
<!-- Title: AkapuluPipeline Pages: 1 -->
<svg width="491pt" height="571pt"
 viewBox="0.00 0.00 491.00 571.00" xmlns="http://www.w3.org/2000/svg" xmlns:xlink="http://www.w3.org/1999/xlink">
<g id="graph0" class="graph" transform="scale(1 1) rotate(0) translate(57.6 513.6)">
<title>AkapuluPipeline</title>
<polygon fill="white" stroke="none" points="-57.6,57.6 -57.6,-513.6 433.88,-513.6 433.88,57.6 -57.6,57.6"/>
<g id="clust1" class="cluster">
<title>cluster_akapulu</title>
<path fill="#f0f9ff" stroke="#0369a1" stroke-width="1.6" d="M262.68,-8C262.68,-8 356.28,-8 356.28,-8 362.28,-8 368.28,-14 368.28,-20 368.28,-20 368.28,-436 368.28,-436 368.28,-442 362.28,-448 356.28,-448 356.28,-448 262.68,-448 262.68,-448 256.68,-448 250.68,-442 250.68,-436 250.68,-436 250.68,-20 250.68,-20 250.68,-14 256.68,-8 262.68,-8"/>
<text xml:space="preserve" text-anchor="middle" x="309.48" y="-433.2" font-family="Helvetica,sans-Serif" font-size="12.00">Akapulu</text>
</g>
<!-- user -->
<g id="node1" class="node">
<title>user</title>
<path fill="#ede9fe" stroke="#7c3aed" d="M45.6,-432.4C45.6,-432.4 12,-432.4 12,-432.4 6,-432.4 0,-426.4 0,-420.4 0,-420.4 0,-379.6 0,-379.6 0,-373.6 6,-367.6 12,-367.6 12,-367.6 45.6,-367.6 45.6,-367.6 51.6,-367.6 57.6,-373.6 57.6,-379.6 57.6,-379.6 57.6,-420.4 57.6,-420.4 57.6,-426.4 51.6,-432.4 45.6,-432.4"/>
<image xlink:href="user-icon.png" width="57.6px" height="57.6px" preserveAspectRatio="xMinYMin meet" x="1.42109e-14" y="-425.2"/>
<text xml:space="preserve" text-anchor="middle" x="28.8" y="-422.5" font-family="Helvetica,sans-Serif" font-size="11.00">User</text>
</g>
<!-- stt -->
<g id="node2" class="node">
<title>stt</title>
<polygon fill="#e0f2fe" stroke="#0369a1" points="355.08,-418 263.88,-418 263.88,-382 355.08,-382 355.08,-418"/>
<text xml:space="preserve" text-anchor="middle" x="309.48" y="-396.7" font-family="Helvetica,sans-Serif" font-size="11.00">Speech&#45;to&#45;Text</text>
</g>
<!-- user&#45;&gt;stt -->
<g id="edge7" class="edge">
<title>user:e&#45;&gt;stt:w</title>
<path fill="none" stroke="#334155" d="M57.6,-400C145.63,-400 169.96,-400 253.51,-400"/>
<polygon fill="#334155" stroke="#334155" points="253.37,-402.8 261.37,-400 253.37,-397.2 253.37,-402.8"/>
<image xlink:href="user-audio-waves.png" width="18px" height="18px" preserveAspectRatio="xMinYMin meet" x="149.139" y="-437"/>
<text xml:space="preserve" text-anchor="start" x="121.73" y="-405" font-family="Helvetica,sans-Serif" font-size="10.00">User input audio</text>
</g>
<!-- llm -->
<g id="node3" class="node">
<title>llm</title>
<polygon fill="#e0f2fe" stroke="#0369a1" points="336.48,-296 282.48,-296 282.48,-260 336.48,-260 336.48,-296"/>
<text xml:space="preserve" text-anchor="middle" x="309.48" y="-274.7" font-family="Helvetica,sans-Serif" font-size="11.00">LLM</text>
</g>
<!-- stt&#45;&gt;llm -->
<g id="edge4" class="edge">
<title>stt&#45;&gt;llm</title>
<path fill="none" stroke="#334155" d="M309.48,-381.61C309.48,-361.43 309.48,-328.83 309.48,-305.59"/>
<polygon fill="#334155" stroke="#334155" points="312.28,-305.78 309.48,-297.78 306.68,-305.78 312.28,-305.78"/>
<polygon fill="#f3f4f6" stroke="none" points="200.27,-323 200.27,-355 380.69,-355 380.69,-323 200.27,-323"/>
<text xml:space="preserve" text-anchor="start" x="269.09" y="-342" font-family="Helvetica,sans-Serif" font-size="10.00" fill="#334155">User text:</text>
<text xml:space="preserve" text-anchor="start" x="203.27" y="-328" font-family="Helvetica,sans-Serif" font-size="10.00" fill="#334155">&quot;I need to reschedule my appointment.&quot;</text>
<polygon fill="none" stroke="#cbd5e1" points="200.27,-323 200.27,-355 380.69,-355 380.69,-323 200.27,-323"/>
</g>
<!-- llm&#45;&gt;stt -->
<!-- tts -->
<g id="node4" class="node">
<title>tts</title>
<polygon fill="#e0f2fe" stroke="#0369a1" points="355.08,-174 263.88,-174 263.88,-138 355.08,-138 355.08,-174"/>
<text xml:space="preserve" text-anchor="middle" x="309.48" y="-152.7" font-family="Helvetica,sans-Serif" font-size="11.00">Text&#45;to&#45;Speech</text>
</g>
<!-- llm&#45;&gt;tts -->
<g id="edge5" class="edge">
<title>llm&#45;&gt;tts</title>
<path fill="none" stroke="#334155" d="M309.48,-259.61C309.48,-239.43 309.48,-206.83 309.48,-183.59"/>
<polygon fill="#334155" stroke="#334155" points="312.28,-183.78 309.48,-175.78 306.68,-183.78 312.28,-183.78"/>
<polygon fill="#f3f4f6" stroke="none" points="173.6,-201 173.6,-233 407.36,-233 407.36,-201 173.6,-201"/>
<text xml:space="preserve" text-anchor="start" x="257.41" y="-220" font-family="Helvetica,sans-Serif" font-size="10.00" fill="#334155">LLM response:</text>
<text xml:space="preserve" text-anchor="start" x="176.6" y="-206" font-family="Helvetica,sans-Serif" font-size="10.00" fill="#334155">&quot;I can help with that. What day works best for you?&quot;</text>
<polygon fill="none" stroke="#cbd5e1" points="173.6,-201 173.6,-233 407.36,-233 407.36,-201 173.6,-201"/>
</g>
<!-- tts&#45;&gt;llm -->
<!-- avatar -->
<g id="node5" class="node">
<title>avatar</title>
<polygon fill="#e0f2fe" stroke="#0369a1" points="360.28,-52 258.68,-52 258.68,-16 360.28,-16 360.28,-52"/>
<text xml:space="preserve" text-anchor="middle" x="309.48" y="-30.7" font-family="Helvetica,sans-Serif" font-size="11.00">Avatar Rendering</text>
</g>
<!-- tts&#45;&gt;avatar -->
<g id="edge6" class="edge">
<title>tts&#45;&gt;avatar</title>
<path fill="none" stroke="#334155" d="M309.48,-137.61C309.48,-117.43 309.48,-84.83 309.48,-61.59"/>
<polygon fill="#334155" stroke="#334155" points="312.28,-61.78 309.48,-53.78 306.68,-61.78 312.28,-61.78"/>
<polygon fill="#f3f4f6" stroke="none" points="263.35,-76 263.35,-114 311.61,-114 311.61,-76 263.35,-76"/>
<image xlink:href="bot-audiowaves.png" width="18px" height="18px" preserveAspectRatio="xMinYMin meet" x="278.48" y="-111"/>
<text xml:space="preserve" text-anchor="start" x="266.35" y="-81" font-family="Helvetica,sans-Serif" font-size="10.00" fill="#334155">Bot audio</text>
<polygon fill="none" stroke="#cbd5e1" points="263.35,-76 263.35,-114 311.61,-114 311.61,-76 263.35,-76"/>
</g>
<!-- avatar&#45;&gt;user -->
<g id="edge8" class="edge">
<title>avatar:w&#45;&gt;user:s</title>
<path fill="none" stroke="#334155" d="M257.68,-34C81.39,-34 30.58,-181.82 28.85,-357.16"/>
<polygon fill="#334155" stroke="#334155" points="26.05,-357.07 28.81,-365.09 31.65,-357.1 26.05,-357.07"/>
<image xlink:href="avatar_output_thumb.png" width="41.25px" height="42px" preserveAspectRatio="xMinYMin meet" x="110.459" y="-156.196"/>
<text xml:space="preserve" text-anchor="start" x="165.55" y="-129.6" font-family="Helvetica,sans-Serif" font-size="14.00">+</text>
<image xlink:href="bot-audiowaves.png" width="27.9674px" height="27.9674px" preserveAspectRatio="xMinYMin meet" x="182.711" y="-149.18"/>
<text xml:space="preserve" text-anchor="start" x="105.6" y="-100.2" font-family="Helvetica,sans-Serif" font-size="10.00">Bot output video / audio</text>
</g>
<!-- avatar&#45;&gt;tts -->
</g>
</svg>
